<svg width="40" height="40" viewBox="0 0 40 40" fill="none" xmlns="http://www.w3.org/2000/svg">
<rect width="40" height="40" rx="20" fill="#B3B3B3"/>
<path d="M20 8C23.467 8 26.2857 10.6906 26.2857 14C26.2857 17.3094 23.467 20 20 20C16.533 20 13.7143 17.3094 13.7143 14C13.7143 10.6906 16.533 8 20 8ZM31 30.2C31 31.1937 30.0179 32 28.8 32H11.2C9.98214 32 9 31.1937 9 30.2V28.4C9 25.4188 11.9562 23 15.6 23H16.0911C17.2991 23.4781 18.6152 23.75 20 23.75C21.3848 23.75 22.7107 23.4781 23.9089 23H24.4C28.0437 23 31 25.4188 31 28.4V30.2Z" fill="white"/>
</svg>
