<?xml version="1.0" encoding="utf-8"?>
<!-- Generator: Adobe Illustrator 25.3.1, SVG Export Plug-In . SVG Version: 6.00 Build 0)  -->
<svg version="1.1" id="Layer_1" xmlns="http://www.w3.org/2000/svg" xmlns:xlink="http://www.w3.org/1999/xlink" x="0px" y="0px"
	 width="1024px" height="1024px" viewBox="0 0 1024 1024" style="enable-background:new 0 0 1024 1024;" xml:space="preserve">
<style type="text/css">
	.st0{opacity:0.2;}
	.st1{fill:#FFFFFF;}
</style>
<g id="Group_2123" transform="matrix(0.966, -0.259, 0.259, 0.966, -49.961, 104.178)" class="st0">
	<path id="Path_1096" class="st1" d="M854,875.2l-65.8-223.3c-3.8-12.8-15.4-21.4-28.7-21.4h-73.1l-57.6-201.6
		c-3.6-12.9-15.4-21.6-28.7-21.6h-73.1l-57.6-201.6c-3.6-12.9-15.4-21.6-28.7-21.6H249.1c-13.3,0-25.1,8.9-28.7,21.6l-57.6,201.6
		H89.6c-13.3,0-25.1,8.9-28.7,21.6L3.3,630.5h-73.1c-13.2,0-24.9,8.8-28.7,21.4l-65.8,223.3c-4.7,15.8,4.4,32.5,20.3,37.1
		c2.7,0.8,5.6,1.3,8.4,1.3h961c16.5,0,30-13.4,30-30C855.3,880.7,854.8,878,854,875.2z M624.2,630.4H384.4l46.7-163.5h146.4
		L624.2,630.4z M504.3,774.7l-24.2-84.5h48.3L504.3,774.7z M344.8,551.5l-24.2-84.5h48.3L344.8,551.5z M271.7,243.5h146.3L464.6,407
		H225L271.7,243.5z M112.2,466.9h146.3l46.7,163.5H65.5L112.2,466.9z M185.3,774.7l-24.2-84.5h48.3L185.3,774.7z M-95.7,853.7
		l48.2-163.5H99l46.7,163.5H-95.7z M225,853.7l46.7-163.5h146.3l46.7,163.5H225z M544,853.7l46.7-163.5h146.5l48.2,163.5H544z"/>
	<path id="Path_1097" class="st1" d="M344.8,100c16.5,0,30-13.4,30-30l0,0V22.2c0.1-16.5-13.2-30-29.7-30.1s-30,13.2-30.1,29.7
		c0,0.1,0,0.2,0,0.3V70C314.9,86.7,328.3,100,344.8,100L344.8,100z"/>
	<path id="Path_1098" class="st1" d="M213.9,109.1c11.8,11.6,30.8,11.4,42.3-0.5c11.4-11.6,11.4-30.3,0-41.9l-33.8-33.8
		c-11.6-11.5-30.5-11.5-42.3,0.2c-11.6,11.6-11.6,30.5,0,42.2L213.9,109.1z"/>
	<path id="Path_1099" class="st1" d="M475.7,109.1l33.8-33.8c11.7-11.6,11.7-30.5,0.1-42.3c-11.6-11.7-30.5-11.7-42.3-0.1l-0.1,0.1
		l-33.8,33.8c-11.6,11.7-11.6,30.6,0.1,42.3C445.2,120.7,464.1,120.7,475.7,109.1L475.7,109.1z"/>
</g>
</svg>
