<?xml version="1.0" encoding="utf-8"?>
<!-- Generator: Adobe Illustrator 25.3.1, SVG Export Plug-In . SVG Version: 6.00 Build 0)  -->
<svg version="1.1" id="Layer_1" xmlns="http://www.w3.org/2000/svg" xmlns:xlink="http://www.w3.org/1999/xlink" x="0px" y="0px"
	 width="1024px" height="1024px" viewBox="0 0 1024 1024" style="enable-background:new 0 0 1024 1024;" xml:space="preserve">
<style type="text/css">
	.st0{opacity:0.2;}
	.st1{fill:#FFFFFF;}
</style>
<g id="Group_2121" transform="matrix(0.966, -0.259, 0.259, 0.966, -0.147, 187.925)" class="st0">
	<g id="Group_2078" transform="translate(0.152)">
		<g id="Group_2077" transform="translate(0)">
			<path id="Path_1094" class="st1" d="M111.5,203.2c-27.2,0-49.2-22.1-49.1-49.3s22.1-49.2,49.3-49.1h637.6V6.4l-637.6,0
				C30.1,6.3-35.9,72.2-36,153.7c0,0.1,0,0.2,0,0.4c0,2.3,0,4.6,0,7.1v581.6c0,81.4,65.9,147.3,147.4,147.5l589.4,1.5
				c81.3,0.4,147.3-65.3,147.6-146.6c0-0.1,0-0.4,0-0.5V203.4H111.5V203.2z M750,744.4c0,26.9-21.8,48.7-48.9,48.7
				c-0.1,0-0.2,0-0.2,0l-589.4-1.5c-27.2,0-49.2-22-49.3-49.2V293.1c15.8,5.6,32.4,8.4,49.2,8.4h638.5v442.9H750z"/>
		</g>
	</g>
	<g id="Group_2080" transform="translate(452.42 329.293)">
		<g id="Group_2079">
			<path id="Path_1095" class="st1" d="M205.3,173.3h147.4v-95H205.3c-78.8,0-142.7,64-142.7,142.7s63.8,142.7,142.7,142.8l0,0
				h147.4v-95H205.3c-26.3,0-47.6-21.3-47.6-47.6S179,173.3,205.3,173.3L205.3,173.3L205.3,173.3z"/>
		</g>
	</g>
</g>
</svg>
