<?xml version="1.0" encoding="utf-8"?>
<!-- Generator: Adobe Illustrator 25.3.1, SVG Export Plug-In . SVG Version: 6.00 Build 0)  -->
<svg version="1.1" id="Layer_1" xmlns="http://www.w3.org/2000/svg" xmlns:xlink="http://www.w3.org/1999/xlink" x="0px" y="0px"
	 width="1024px" height="1024px" viewBox="0 0 1024 1024" style="enable-background:new 0 0 1024 1024;" xml:space="preserve">
<style type="text/css">
	.st0{opacity:0.2;}
	.st1{fill:#FFFFFF;}
</style>
<g id="Group_2125" transform="translate(728.167 1453.086) rotate(-60)" class="st0">
	<path id="Path_1109" class="st1" d="M137.7-658.3c-0.2,32.9,12.8,64.5,36.1,87.7c23.2,23.3,54.8,36.4,87.7,36.1
		c16.7,0,33.3-3.5,48.7-10.2c3.4,27.2,15.7,52.6,35.1,71.9c23.2,23.3,54.8,36.4,87.7,36.1c32.9-0.1,64.5-13.2,87.6-36.6
		c23.3-23.2,36.5-54.7,36.6-87.7c0.1-16.6-3.1-33.1-9.6-48.3l448.7-2l-0.2,89.2c0,14.1,11.3,25.4,25.3,25.4c6.7,0,13.2-2.7,18-7.4
		c4.8-4.8,7.4-11.2,7.4-17.9l0.1-25c0-0.1,0-0.1,0-0.2l44-0.1l-0.1,24.6c0,14.1,11.3,25.4,25.3,25.4c6.7,0,13.2-2.7,18-7.4
		c4.8-4.8,7.4-11.2,7.4-17.9l0.2-89.3l110.8,2.1c13.9,0,25.3-11.4,25.3-25.3l-1-47.9c0-14.1-11.3-25.4-25.3-25.4h-0.1l-704.8,1.6
		c7.3-16,11.2-33.5,11.2-51c0.2-32.9-12.8-64.5-36.1-87.7c-23.2-23.3-54.8-36.4-87.7-36.1c-63.1,0.2-115.3,47.7-123.2,108.8
		c-15.4-6.6-32.2-10-48.9-9.9C193.6-782.2,137.9-726.6,137.7-658.3L137.7-658.3z M485.8-809.4c13.7,13.7,21.4,32.3,21.3,51.6
		c-0.2,40.5-33.1,73.4-73.6,73.6c-19.4,0.1-38-7.6-51.6-21.3c-13.7-13.7-21.4-32.3-21.3-51.6c0.1-19.5,7.9-38.2,21.7-51.9
		c13.7-13.8,32.4-21.6,51.9-21.7C453.5-830.8,472.1-823.1,485.8-809.4L485.8-809.4z M381.1-508.7c-13.7-13.7-21.4-32.3-21.3-51.6
		c0.1-19.5,7.9-38.2,21.7-51.9c13.7-13.8,32.4-21.6,51.9-21.7c19.4-0.1,38,7.6,51.6,21.3c13.7,13.7,21.4,32.3,21.3,51.6
		c-0.2,40.5-33.1,73.4-73.6,73.6C413.4-487.3,394.8-495,381.1-508.7z M209.7-606.5c-13.7-13.7-21.4-32.3-21.3-51.6
		c0.1-19.5,7.9-38.2,21.7-51.9c13.7-13.8,32.4-21.6,51.9-21.7c19.4-0.1,38,7.6,51.6,21.3c13.7,13.7,21.4,32.3,21.3,51.6
		c-0.2,40.5-33.1,73.4-73.6,73.6C241.8-585.1,223.3-592.8,209.7-606.5z"/>
</g>
</svg>
