<?xml version="1.0" encoding="utf-8"?>
<!-- Generator: Adobe Illustrator 25.3.1, SVG Export Plug-In . SVG Version: 6.00 Build 0)  -->
<svg version="1.1" id="Layer_1" xmlns="http://www.w3.org/2000/svg" xmlns:xlink="http://www.w3.org/1999/xlink" x="0px" y="0px"
	 width="1024px" height="1024px" viewBox="0 0 1024 1024" style="enable-background:new 0 0 1024 1024;" xml:space="preserve">
<style type="text/css">
	.st0{opacity:0.2;}
	.st1{fill:#FFFFFF;}
</style>
<g id="Group_2122" transform="matrix(0.966, -0.259, 0.259, 0.966, 3.841, 163.736)" class="st0">
	<g id="Group_2085" transform="translate(0.152 -15.408)">
		<path id="Path_1100" class="st1" d="M367.1,805.7c109.2,0,198.1-88.8,198.1-198.1s-88.8-198.1-198.1-198.1
			s-198.2,88.8-198.2,198.1S257.9,805.7,367.1,805.7z M367.1,466.1c78.2,0,141.5,63.3,141.5,141.5s-63.3,141.5-141.5,141.5
			s-141.5-63.3-141.5-141.5C225.7,529.5,288.9,466.2,367.1,466.1L367.1,466.1z"/>
		<path id="Path_1101" class="st1" d="M610.4,296.3v-100C610.4,62.1,501.3-47,367.1-47S123.7,62.1,123.7,196.3v100H48.3v622.6h637.7
			V296.3H610.4z M180.2,196.3C180.2,93.3,264,9.6,367,9.6c103,0,186.8,83.7,186.8,186.8v100h-56.6v-100
			c0-71.9-58.3-130.2-130.2-130.2s-130.1,58.3-130.1,130.2v100h-56.6v-100H180.2z M440.6,296.3H293.5v-100
			c0-40.6,32.9-73.5,73.6-73.5c40.6,0,73.5,32.9,73.5,73.5V296.3z M629.3,862.3H104.8V352.9h524.4V862.3z"/>
		<path id="Path_1102" class="st1" d="M433.2,582.7l-38.6-41.4l-27.3,25.5l-49.1-46.9l-39.1,40.8l87.8,84L433.2,582.7z"/>
	</g>
</g>
</svg>
