<svg width="211" height="209" viewBox="0 0 211 209" fill="none" xmlns="http://www.w3.org/2000/svg">
<path d="M199.252 140.037C199.252 176.253 168.876 205.641 131.368 205.641C93.8612 205.641 63.4847 176.253 63.4847 140.037C63.4847 103.821 93.8612 74.4336 131.368 74.4336C168.876 74.4336 199.252 103.821 199.252 140.037Z" stroke="#6246E5"/>
<path d="M201.951 133.082C201.951 173.621 167.949 206.514 125.97 206.514C83.9899 206.514 49.9879 173.621 49.9879 133.082C49.9879 92.5427 83.9899 59.6504 125.97 59.6504C167.949 59.6504 201.951 92.5427 201.951 133.082Z" stroke="#6246E5"/>
<path d="M204.651 127.425C204.651 171.807 167.426 207.815 121.471 207.815C75.5157 207.815 38.2908 171.807 38.2908 127.425C38.2908 83.0428 75.5157 47.0352 121.471 47.0352C167.426 47.0352 204.651 83.0428 204.651 127.425Z" stroke="#6246E5"/>
<path d="M206.45 119.166C206.45 166.911 166.406 205.644 116.972 205.644C67.5381 205.644 27.4933 166.911 27.4933 119.166C27.4933 71.4211 67.5381 32.6875 116.972 32.6875C166.406 32.6875 206.45 71.4211 206.45 119.166Z" stroke="#6246E5"/>
<path d="M208.25 111.117C208.25 162.104 165.486 203.467 112.698 203.467C59.9099 203.467 17.1459 162.104 17.1459 111.117C17.1459 60.1297 59.9099 18.7676 112.698 18.7676C165.486 18.7676 208.25 60.1297 208.25 111.117Z" stroke="#6246E5"/>
<path d="M210.5 101.982C210.5 158.014 163.506 203.465 105.5 203.465C47.4939 203.465 0.5 158.014 0.5 101.982C0.5 45.951 47.4939 0.5 105.5 0.5C163.506 0.5 210.5 45.951 210.5 101.982Z" stroke="#6246E5"/>
</svg>
