<svg width="463" height="12" viewBox="0 0 463 12" fill="none" xmlns="http://www.w3.org/2000/svg">
<path d="M67.1963 -2.5387L68.3548 -2.69687L66.1005 -2.92365L67.1811 -3.08965C68.2647 -3.08813 69.6687 -2.8394 70.4327 -2.97156C70.5261 -3.09952 69.3461 -3.14059 69.045 -3.24254C68.7786 -3.34704 68.5611 -3.45086 68.3952 -3.55276C68.9854 -3.55165 69.6342 -3.52701 70.3031 -3.48027C71.2029 -3.40392 72.0854 -3.3668 72.8533 -3.37302C74.4237 -3.3524 75.9407 -3.37297 77.648 -3.36844L77.08 -3.6764L79.2803 -3.60436C79.5135 -3.58089 79.7915 -3.61862 80.0206 -3.5896C81.9275 -3.34403 82.7344 -3.47785 83.6497 -3.58881C83.8374 -3.61751 84.0635 -3.63895 84.3221 -3.65255C86.8658 -3.59373 89.1597 -3.24951 91.4505 -3.0728C91.8817 -3.02768 92.2953 -2.96977 92.6619 -2.90317C93.4587 -2.77369 94.345 -2.66797 95.2398 -2.5957C96.1346 -2.52342 97.0091 -2.4869 97.7837 -2.48945C99.4965 -2.49231 101.431 -2.40666 103.402 -2.24081C103.987 -2.18618 104.574 -2.15014 105.123 -2.13499C105.672 -2.11984 106.172 -2.1259 106.592 -2.15281L107.924 -1.97701C108.501 -2.04834 109.233 -2.08748 110.076 -2.09204C110.918 -2.09661 111.853 -2.06651 112.824 -2.00357C113.859 -1.93529 114.91 -1.88926 115.984 -1.81707C118.202 -1.67906 120.361 -1.59465 122.393 -1.56648C125.42 -1.48299 128.377 -1.41843 131.43 -1.31434C133.34 -1.2641 135.201 -1.23646 137.002 -1.23158C139.159 -1.21193 141.492 -1.11679 143.889 -0.950751C143.776 -0.794971 142.725 -0.840992 142.019 -0.846264C139.743 -0.872156 137.414 -0.939251 135.073 -0.989653C134.018 -1.00933 132.992 -1.01678 132.002 -1.01195C130.345 -1.01841 128.599 -1.05992 126.794 -1.13577C123.941 -1.21923 121.179 -1.25935 118.537 -1.25571C118.33 -1.24954 118.14 -1.23861 117.971 -1.22309C117.935 -1.20966 117.928 -1.19271 117.95 -1.17389C117.972 -1.15506 118.023 -1.13498 118.097 -1.11557C118.17 -1.09616 118.265 -1.07808 118.372 -1.06305C118.478 -1.04801 118.593 -1.03653 118.706 -1.0297C119.755 -0.924132 120.882 -0.810746 121.872 -0.794794C121.91 -0.793602 121.951 -0.790881 121.991 -0.786823C122.032 -0.782765 122.071 -0.777474 122.105 -0.771335C124.321 -0.548462 126.142 -0.586178 127.868 -0.549917C130.733 -0.451916 133.495 -0.406141 136.113 -0.41328C136.508 -0.412794 136.935 -0.400055 137.378 -0.375523C140.119 -0.276072 142.683 -0.26495 144.948 -0.342655C145.88 -0.362343 146.746 -0.406537 147.748 -0.407277C148.365 -0.410318 148.903 -0.43852 149.327 -0.490194C149.752 -0.541871 150.056 -0.61595 150.221 -0.707979C150.643 -0.659527 151.073 -0.616346 151.503 -0.578952C151.761 -0.557571 152.007 -0.551892 152.194 -0.563081C152.38 -0.574268 152.492 -0.601488 152.507 -0.639234C152.584 -0.744941 151.997 -0.798026 151.488 -0.843294C151.795 -0.865964 152.141 -0.879301 152.518 -0.882982C154.64 -0.907136 156.917 -0.878627 159.298 -0.798084C161.147 -0.701675 162.623 -0.780145 164.568 -0.644188C164.801 -0.620728 164.993 -0.655162 165.208 -0.66343C165.768 -0.706968 166.465 -0.716754 167.239 -0.691931C168.013 -0.667109 168.841 -0.608428 169.652 -0.520975C170.66 -0.759897 172.839 -0.48695 174.448 -0.46242C174.944 -0.340918 174.375 -0.362277 174.351 -0.328896C174.327 -0.295514 174.351 -0.328903 174.157 -0.348454C172.55 -0.176383 170.349 -0.138863 167.862 -0.241165C167.402 -0.240741 166.964 -0.232903 166.551 -0.217724C165.927 -0.196243 165.223 -0.198387 164.47 -0.224066C163.647 -0.242926 162.892 -0.233968 162.24 -0.197629C161.864 -0.198219 161.547 -0.180015 161.317 -0.144689C161.087 -0.109364 160.952 -0.0580609 160.924 0.00444822C161.174 0.0526386 161.452 0.0967327 161.747 0.134979C163.283 0.285997 164.815 0.348509 166.041 0.310212C168.175 0.244227 170.715 0.308618 172.984 0.286092C174.518 0.276965 176.151 0.30296 177.851 0.363588C177.851 0.363588 177.806 0.424786 177.802 0.43035C178.003 0.456846 178.215 0.478106 178.424 0.492912C178.424 0.492912 178.424 0.492913 178.444 0.465094C178.351 0.438381 178.225 0.41325 178.08 0.392612L177.575 0.341779C177.918 0.32855 178.239 0.289165 178.597 0.313229C179.351 0.357937 180.072 0.37681 180.716 0.36873C181.36 0.360649 181.914 0.325777 182.344 0.266206C183.108 0.189859 184.057 0.155139 185.131 0.16429C185.954 0.155955 186.747 0.138039 187.506 0.110636C187.506 0.110636 187.555 0.0438791 187.915 0.00839706C187.574 -0.0353656 187.219 -0.0711011 186.865 -0.0971693C185.327 -0.162299 183.785 -0.221865 182.274 -0.266392C181.718 -0.271203 181.194 -0.263742 180.714 -0.244157C179.385 -0.221237 177.891 -0.253765 176.32 -0.339846C176.32 -0.339846 176.009 -0.371125 175.854 -0.386766C176.294 -0.53352 177.814 -0.386602 178.429 -0.485988C178.803 -0.484179 179.462 -0.47168 179.439 -0.497844C179.388 -0.532759 179.382 -0.565194 179.421 -0.592823C179.461 -0.620452 179.545 -0.642593 179.667 -0.657655C179.79 -0.672715 179.948 -0.680328 180.131 -0.679941C180.313 -0.679555 180.515 -0.671176 180.722 -0.655414C182.452 -0.57015 184.082 -0.546439 185.511 -0.585733C186.053 -0.584975 186.66 -0.559704 187.198 -0.553381C187.527 -0.545767 187.828 -0.550002 188.083 -0.565853C189.383 -0.682596 191.131 -0.691122 193.066 -0.59015C194.001 -0.553848 194.875 -0.548993 195.642 -0.575835C196.188 -0.580639 196.419 -0.497637 196.808 -0.458537L198.459 -0.376113L196.339 -0.272834C196.792 -0.0361502 197.152 0.0418927 197.892 0.0566392C198.972 0.0789062 200.024 0.0889663 201.041 0.086755C201.794 0.0848101 202.415 0.0338384 203.434 0.124373C203.614 0.139138 203.787 0.143919 203.924 0.137909C205.117 0.0575354 206.554 0.0390881 208.136 0.0838301C208.955 -0.066678 210.35 0.0796555 211.641 0.19756C212.058 0.0841882 211.303 0.0321445 210.853 -0.0370298C211.932 -0.0299487 213.02 -0.0339929 214.134 -0.0174373C214.47 -0.0234639 214.853 -0.0131553 215.254 0.012678C215.655 0.0385114 216.063 0.0791609 216.445 0.13145C216.632 0.165237 216.857 0.190665 217.074 0.202456C217.291 0.214246 217.482 0.211495 217.609 0.194774C218.188 0.145461 219.114 0.190879 219.592 0.107581C219.762 0.0884241 220.005 0.0857499 220.277 0.100026C220.55 0.114302 220.834 0.144605 221.079 0.1855C220.811 0.198261 220.572 0.218353 220.368 0.245338C219.636 0.332993 219.905 0.479455 220.834 0.692388C222.261 0.680678 223.719 0.684003 225.042 0.643872C225.779 0.607847 226.682 0.619108 227.65 0.676392C228.618 0.733676 229.612 0.834709 230.521 0.968132C230.85 1.01944 231.224 1.05497 231.571 1.06768C231.917 1.08039 232.21 1.06934 232.39 1.03672C232.502 0.998995 232.537 0.951252 232.492 0.897629L231.559 0.803793C231.559 0.803793 231.595 0.75372 231.603 0.742593L232.944 0.734181C233.654 0.733889 234.394 0.748638 235.065 0.744437C236.05 0.716492 237.174 0.732068 238.369 0.790197C239.471 0.849802 240.554 0.894857 241.609 0.924962C242.629 0.955952 243.368 0.857161 244.34 0.841385C245.074 0.829495 245.882 0.842203 246.732 0.879015C248.201 0.944302 249.549 0.944425 250.654 0.879366C251.942 1.22989 252.567 1.28688 253.763 1.19216L254.325 1.16511L254.479 1.24029L254.908 1.22376C255.712 1.20903 256.515 1.19431 257.353 1.18906C258.519 1.22159 259.778 1.30911 261.006 1.44307C261.239 1.46653 261.557 1.54624 261.762 1.60864C261.966 1.67105 262.413 1.85931 262.741 1.98186C262.384 2.07133 261.987 2.15688 261.704 2.25972C261.675 2.27729 261.678 2.29825 261.712 2.3209C261.746 2.34354 261.81 2.36726 261.898 2.39014C261.987 2.41301 262.099 2.4344 262.223 2.4526C262.348 2.4708 262.483 2.48529 262.617 2.49491C262.878 2.51565 263.136 2.52948 263.38 2.53583C264.581 2.54677 265.731 2.53863 266.819 2.51151C267.216 2.47325 267.76 2.46961 268.364 2.50119C268.968 2.53277 269.598 2.59775 270.154 2.68582C271.578 2.63294 273.232 2.64857 275.002 2.7316C276.875 2.6811 279.137 2.78323 280.886 2.67258C280.846 2.72821 281.026 2.824 281.278 2.87919C281.676 2.96302 282.127 3.04071 282.612 3.10896L286.312 3.24224C286.45 3.31077 286.623 3.38014 286.828 3.44945C286.969 3.5042 287.213 3.55778 287.511 3.59882C287.808 3.63986 288.134 3.66515 288.42 3.66932C289.156 3.68962 289.773 3.64422 290.651 3.7564C289.299 3.86245 287.476 3.84836 285.507 3.71664C283.656 3.61647 281.876 3.56641 280.233 3.56831C279.691 3.56755 278.977 3.5734 278.808 3.634C278.433 3.80526 277.451 3.77819 276.306 3.7466C275.406 3.71202 274.585 3.7159 273.909 3.75792C273.232 3.79995 272.721 3.87892 272.416 3.98833C272.339 4.09404 272.524 4.18427 273.313 4.24578L276.596 4.49243C277.08 4.46071 277.539 4.42318 277.972 4.37997C278.7 4.32258 279.6 4.30683 280.6 4.33394C281.601 4.36105 282.675 4.43029 283.74 4.53628C284.284 4.59102 284.829 4.64576 285.223 4.61975C285.569 4.58987 285.888 4.5541 286.177 4.51269C286.236 4.48495 286.259 4.45301 286.246 4.41811C286.456 4.43434 286.665 4.45544 286.868 4.48068C288.489 4.77512 289.744 4.77002 290.885 4.69365C291.194 4.67095 291.429 4.63486 291.741 4.60659C292.054 4.57833 292.164 4.54164 292.448 4.55232C294.714 4.64889 295.367 4.32636 297.277 4.33931C297.37 4.32671 297.427 4.30787 297.444 4.28454C297.461 4.26121 297.437 4.23413 297.374 4.20579C297.239 4.1802 297.083 4.15819 296.92 4.1418C296.757 4.1254 296.592 4.11513 296.441 4.11195C295.562 4.07056 294.786 4.08325 294.245 4.14785C293.862 4.17425 293.457 4.19528 293.031 4.21084L291.119 3.74377C292.972 3.78658 294.724 3.78631 296.335 3.74294C296.686 3.71858 297.282 3.76054 297.776 3.76852L301.416 3.81217C302.164 3.81579 302.802 3.74257 303.846 3.91325C303.846 3.91325 304.535 3.94077 304.719 3.91747C304.902 3.89416 305.718 3.74922 306.204 3.6548C306.768 3.68172 307.55 3.75436 307.901 3.73001C308.515 3.67019 309.047 3.59349 309.486 3.50132L311.685 3.63291C311.683 3.74981 311.602 3.85978 311.446 3.96116C311.274 4.05893 311.28 4.17629 311.463 4.30364C311.645 4.431 311.999 4.56473 312.496 4.69392L314.667 5.37812C315.022 5.42394 315.399 5.45478 315.749 5.46646C316.099 5.47814 316.404 5.47009 316.622 5.4434C317.556 5.36417 318.603 5.30223 319.537 5.223C320.742 5.34421 320.432 5.53999 321.308 5.71172L324.145 5.99714C324.578 6.26165 325.019 6.51502 323.703 6.60357C323.441 6.61906 323.617 6.72041 323.378 6.76206C324.402 6.96056 325.527 7.01998 326.564 7.14224C326.973 7.23016 327.315 7.32324 327.573 7.41696C327.857 7.55809 328.433 7.70224 329.175 7.81831C329.918 7.93437 330.769 8.01302 331.543 8.03728C332.842 8.11158 334.173 8.22319 335.475 8.36709C335.919 8.41712 336.376 8.45358 336.815 8.474C337.253 8.49442 337.663 8.49832 338.017 8.48546C339.276 8.4628 340.342 8.38488 341.146 8.25678C341.94 8.14807 343.011 8.09568 344.261 8.10435C346.399 8.3194 346.83 8.64345 348.123 8.92887L345.889 8.96087C345.808 9.07214 345.956 9.21243 345.04 9.20987C344.124 9.2073 344.588 9.31376 344.885 9.42128C344.99 9.47536 345.194 9.531 345.464 9.57877C345.733 9.62653 346.051 9.66349 346.363 9.68339L348.265 9.82101C348.94 9.87338 349.593 9.89574 350.152 9.88564C350.711 9.87554 351.156 9.83337 351.436 9.76375C351.758 9.69765 352.203 9.65294 352.742 9.63235C353.429 9.57843 353.995 9.49823 354.417 9.39479L357.103 9.54549C357.217 9.44155 357.586 9.36866 358.147 9.33916C358.708 9.30966 359.428 9.32535 360.183 9.38359L361.993 9.47609C364.005 9.57701 364.447 9.54379 365.036 9.25072L362.623 8.72726C362.974 8.58938 363.312 8.46818 363.651 8.34699C363.05 8.17453 362.248 8.01142 361.326 7.87421C360.466 7.72678 359.581 7.58399 358.676 7.44639C357.694 7.30578 356.657 7.18352 355.437 7.02501C355.224 6.97373 354.915 6.8829 354.52 6.79538C354.124 6.71034 353.712 6.62697 353.284 6.54561C353.365 6.43434 353.438 6.3342 353.282 6.20503C354.033 6.24624 354.809 6.31833 355.54 6.41478C356.27 6.51123 356.933 6.62903 357.468 6.75753C357.558 6.78032 357.668 6.80173 357.791 6.8203C357.915 6.83888 358.048 6.8542 358.182 6.86521C359.501 6.94417 360.132 7.10912 360.777 7.31137C361.211 7.41476 361.771 7.50658 362.379 7.57408C363.545 7.69138 364.687 7.84207 365.802 7.97215C366.143 8.0155 366.498 8.05118 366.852 8.07772C368.017 8.16211 369.19 8.28011 370.311 8.42572C370.677 8.46273 371.028 8.5117 371.335 8.56855C371.641 8.6254 371.895 8.68846 372.075 8.75249C371.797 8.82263 371.648 8.91117 371.635 9.01277C371.586 9.07953 372.405 9.21563 372.792 9.31428C373.179 9.41292 372.42 9.36644 372.162 9.37636C371.105 9.39545 370.909 9.43544 371.542 9.65438C371.753 9.72323 371.894 9.79212 371.954 9.85676C372.015 9.9214 371.994 9.98042 371.894 10.0302C371.744 10.236 371.286 10.405 370.973 10.6064C371.46 10.739 372.274 10.8806 372.363 11.0448C372.406 11.0813 372.496 11.1199 372.627 11.1578C372.758 11.1958 372.927 11.2322 373.121 11.2644C373.632 11.3339 374.098 11.417 374.48 11.5073C374.863 11.5975 375.153 11.6926 375.328 11.785C375.385 11.8232 375.523 11.8638 375.714 11.8985C375.906 11.9333 376.136 11.9597 376.359 11.9724C376.626 11.988 376.865 11.9859 377.027 11.9666C377.188 11.9473 377.26 11.9122 377.228 11.8686C377.234 11.7867 377.199 11.7013 377.122 11.6132C377.167 11.552 377.211 11.4908 377.035 11.3894C377.832 11.4264 378.668 11.5005 379.453 11.6037C380.239 11.7069 380.943 11.8353 381.489 11.9748C382.093 12.1192 382.65 12.2708 383.32 12.4397C383.182 12.6288 383.182 12.6288 384.606 12.9632L392.164 13.1263L393.713 13.3479C395.157 13.5409 395.501 13.5277 396.408 13.4279L397.019 13.3341C398.302 13.4631 399.779 13.6117 400.581 13.3699C400.841 13.5275 401.011 13.5804 400.952 13.6043C400.569 13.8369 399.904 14.0342 398.982 14.1885C398.747 14.2246 398.582 14.2796 398.308 14.3118C397.425 14.4934 397.221 14.774 397.736 15.0962C397.992 15.2388 398.363 15.3848 398.838 15.5296C398.143 15.7305 397.221 15.8969 396.099 16.0244C395.146 16.1231 394.362 16.2552 393.768 16.417C393.235 16.5801 392.437 16.7028 391.419 16.7779C390.902 16.8098 390.526 16.8728 390.326 16.9606C390.267 17.1982 390.403 17.4526 390.733 17.7181C390.795 17.7989 390.971 17.8862 391.248 17.9731C391.525 18.06 391.894 18.1442 392.328 18.219C392.328 18.219 392.537 18.2758 392.637 18.3098C392.721 18.5976 392.408 18.8512 391.719 19.0535C391.606 19.111 391.375 19.1524 391.051 19.1735C390.727 19.1946 390.322 19.1944 389.88 19.1731C388.945 19.1388 388.072 19.1345 387.168 19.1153C386.194 19.088 385.336 19.1095 384.685 19.1774C384.033 19.2453 383.612 19.3572 383.466 19.5012C383.456 19.542 383.428 19.5811 383.38 19.6181C383.353 19.6371 383.338 19.6576 383.336 19.6793L385.411 20.1508L383.063 20.3386C382.925 20.5278 384.052 20.6412 384.617 20.7816L384.268 20.8599C383.819 20.9043 383.213 20.8195 382.665 20.7703L382.12 20.7156L382.056 20.8046C381.717 20.9258 380.481 20.7895 379.999 20.8784C379.517 20.9673 379.861 21.0676 380.583 21.1641C381.085 21.2359 381.625 21.2931 382.16 21.3315C382.696 21.3698 383.214 21.3883 383.676 21.3856C383.952 21.3761 384.18 21.3544 384.348 21.3219C385.323 21.1833 386.4 21.0641 387.571 20.9653C388.468 20.8765 389.592 20.8387 390.864 20.8546C391.237 20.8479 391.687 20.869 392.135 20.914C392.583 20.9591 393 21.0252 393.313 21.101L393.971 21.1134C393.971 21.1134 394.331 21.1915 394.28 21.2043C394.03 21.4355 394.321 21.7182 395.111 22.0104L394.424 22.0369C393.442 22.0098 394.065 22.1859 393.918 22.2726C393.221 22.2562 392.315 22.183 391.984 22.2931L391.489 22.2851L391.683 22.3046L391.918 22.2685L392.841 22.4331C392.404 22.4607 392.087 22.4945 391.701 22.5094C391.488 22.5224 391.318 22.5452 391.201 22.5767C391.085 22.6081 391.025 22.6474 391.025 22.6923C391.026 22.7613 390.911 22.8194 390.691 22.861C390.471 22.9026 390.152 22.9264 389.767 22.93C389.307 22.9315 389.043 23.0065 388.774 23.0331L389.946 23.4854C389.946 23.4854 389.363 23.4268 389.68 23.5065L389.721 23.4509L390.431 23.5641C390.942 23.6633 391.3 23.6874 391.602 23.6163C391.905 23.5452 391.836 23.6398 391.981 23.6125C391.928 23.6849 391.599 23.7354 391.317 23.7787C390.991 23.8127 390.623 23.8377 390.22 23.8534C390.947 24.1714 390.982 24.1809 389.919 24.2651C388.856 24.3493 389.223 24.4758 388.334 24.4938C387.445 24.5118 388.456 24.727 389.051 24.769C389.492 24.7966 389.942 24.8395 390.37 24.8949C390.797 24.9503 391.193 25.0168 391.529 25.0899L391.35 25.3347C391.088 25.3144 390.826 25.2881 390.573 25.2565C389.711 25.122 388.927 24.9954 388.161 25.0736L388.526 25.2596L385.851 25.1518C385.92 25.2912 386.328 25.4499 386.988 25.5946C386.889 25.6741 386.828 25.7577 386.806 25.845C386.761 25.9062 386.497 25.8677 386.325 25.8743C385.713 25.8845 385.21 25.926 384.861 25.9951C384.513 26.0641 384.329 26.1586 384.326 26.2703C384.257 26.3649 385.198 26.5612 385.787 26.5547C387.257 26.5736 388.847 26.6463 390.47 26.769C391.46 26.785 391.6 26.5363 393.228 26.7061C393.26 26.8209 393.052 26.9139 392.634 26.9709C392.216 27.028 391.611 27.0461 390.911 27.0224C391.309 27.2774 393.514 27.3439 393.611 27.6105C393.062 27.5917 392.475 27.5474 391.908 27.482C391.341 27.4166 390.814 27.3323 390.379 27.2376C390.285 27.2142 390.167 27.1927 390.036 27.175C389.905 27.1573 389.765 27.144 389.629 27.1362C389.493 27.1285 389.366 27.1267 389.259 27.1309C389.152 27.1351 389.068 27.1452 389.017 27.1603C389.322 27.2567 389.658 27.3681 390.041 27.4723C390.423 27.5765 390.516 27.6216 390.792 27.6434C392.852 27.8507 393.831 28.2239 395.613 28.4689C396.08 28.5158 396.138 28.6649 395.733 28.6481C395.348 28.6312 394.999 28.6334 394.726 28.6545C394.453 28.6755 394.265 28.7145 394.186 28.7672C393.887 28.8286 393.515 28.8775 393.078 28.9126C394.906 29.2956 397.085 29.634 399.412 29.896C399.852 29.9478 400.312 29.9794 400.723 29.9861C402.021 29.9865 403.399 30.0169 404.829 30.0767C405.336 30.093 405.804 30.0915 406.209 30.0722C407.535 30.0265 408.589 30.1265 409.551 30.4085L411.145 30.8554C411.092 30.9277 410.824 31.0083 410.618 31.119L411.863 31.3576L421.359 30.808L423.265 31.3402L425.999 31.3106C426.208 31.326 426.419 31.3471 426.621 31.3731C427.174 31.5303 427.606 31.6813 428.206 31.8312C428.806 31.9811 429.877 31.9993 430.624 32.176C431.372 32.3527 432.12 32.3563 433.045 32.4613C433.132 32.598 433.042 32.7212 432.781 32.8229C432.695 32.9398 432.226 33.0119 432.144 33.1232C432.153 33.2356 431.979 33.3311 431.636 33.401C431.294 33.4708 430.795 33.5128 430.184 33.5231C428.473 33.7626 426.41 33.9331 424.057 34.0295C423.85 34.0365 423.679 34.0527 423.553 34.0771C423.428 34.1014 423.351 34.1334 423.328 34.1711C423.331 34.2803 423.174 34.3746 422.868 34.4472C422.563 34.5198 422.116 34.5688 421.561 34.5906C421.413 34.595 421.302 34.6087 421.24 34.63C421.03 34.6438 420.877 34.6701 420.795 34.7064C420.714 34.7427 420.707 34.7879 420.776 34.8374C420.845 34.8869 420.987 34.9392 421.188 34.9892C421.389 35.0392 421.642 35.0852 421.924 35.1228C422.332 35.1833 422.75 35.2413 423.174 35.2963C423.15 35.3297 422.729 35.3351 422.79 35.3652C422.956 35.4612 422.995 35.5511 422.903 35.6279C422.81 35.7046 422.59 35.7661 422.259 35.8074L424.528 36.5852C425.906 36.6929 427.257 36.8756 428.326 37.0986C428.327 37.1351 428.266 37.1657 428.147 37.1873C428.029 37.209 427.858 37.2209 427.652 37.2219C427.098 37.2378 426.575 37.2688 425.978 37.2863C425.613 37.2995 425.309 37.3284 425.084 37.3714C424.86 37.4144 424.718 37.4706 424.668 37.5368L426.001 37.8262C425.574 37.8967 425.257 37.9305 424.975 37.9738C425.135 38.0647 425.41 38.1588 425.778 38.2487C426.147 38.3385 426.599 38.4219 427.1 38.4922C427.235 38.5067 427.372 38.5172 427.504 38.5233C427.635 38.5294 427.759 38.5308 427.867 38.5275C428.899 38.4283 430.107 38.6035 431.279 38.7692C432.451 38.9349 433.088 39.0348 433.953 39.1636L435.61 39.181C436.029 39.242 436.403 39.3137 436.702 39.3905C437.001 39.4672 437.216 39.5468 437.331 39.6229C437.242 39.7453 436.457 39.6782 435.989 39.6909C434.878 39.767 433.418 39.7508 431.85 39.6448C431.461 39.6057 431.063 39.6373 430.685 39.641C429.869 39.6562 429.085 39.681 428.336 39.7153C427.843 39.7471 427.382 39.7866 426.956 39.8333C426.843 39.9891 428.632 40.1094 427.617 40.1864C427.966 40.2216 428.097 40.2706 428.277 40.2528C429.43 40.354 430.565 40.404 431.551 40.3971C433.445 40.3756 435.595 40.4466 437.825 40.6042C440.233 40.7675 442.543 40.8361 444.563 40.8043C445.333 40.8024 446.193 40.8359 447.079 40.9021C448.124 40.9938 449.163 41.0514 450.126 41.0713C450.445 41.072 450.801 41.0876 451.164 41.1168C451.526 41.1461 451.887 41.1881 452.215 41.2395C452.186 41.2785 451.874 41.3068 451.943 41.3257C452.94 41.6171 453.345 41.9206 454.88 42.2183C455.929 42.3239 457.134 42.4451 457.82 42.3051C458.507 42.1651 458.261 42.0448 456.895 41.6865C457.191 41.6813 457.548 41.6981 457.904 41.7338C458.259 41.7695 458.59 41.822 458.838 41.882L460.02 42.1501L461.084 42.4065C460.991 42.5345 460.918 42.6346 460.84 42.7403C460.719 42.8526 460.852 42.9893 461.223 43.1311C461.446 43.2086 461.641 43.2861 461.805 43.3629C462.47 43.67 462.663 43.9603 462.361 44.2012C461.783 44.5475 460.978 44.8662 459.956 45.1536C458.876 45.4331 458.285 45.7857 457.395 46.0903C456.941 46.229 456.39 46.3534 455.747 46.462C454.528 46.7036 453.192 46.9335 451.968 47.1807C450.745 47.4279 449.364 47.6055 448.005 47.8092C445.982 48.051 443.796 48.2598 441.457 48.4345C440.011 48.5876 438.525 48.7367 437.187 48.9126C435.606 49.1109 433.749 49.2533 431.663 49.3363C429.819 49.4356 428.173 49.5825 426.754 49.7741C426.605 49.7948 426.487 49.8212 426.405 49.8524C426.149 50.0479 425.433 50.1856 424.366 50.2446C424.431 50.3018 424.514 50.36 424.614 50.4188C424.763 50.489 424.793 50.5547 424.703 50.6074C424.612 50.66 424.405 50.6972 424.107 50.7142C423.253 50.7626 422.544 50.8448 422.01 50.9571C421.814 50.9853 421.693 51.0264 421.656 51.0768C421.619 51.1271 421.668 51.1854 421.799 51.2464C421.915 51.3093 421.924 51.3671 421.824 51.4124C421.724 51.4577 421.52 51.4884 421.238 51.5006C420.516 51.56 419.742 51.6079 418.923 51.6438C417.178 51.7231 415.15 51.7221 412.959 51.641C412.725 51.6176 412.491 51.6537 412.218 51.6263C410.669 51.5355 409.23 51.5214 408.076 51.5858C406.723 51.6109 405.308 51.6059 403.881 51.6176C401.819 51.6098 399.917 51.6575 398.228 51.7596C396.297 51.661 395.213 51.8325 393.583 51.8358C392.079 51.8534 390.653 51.8957 389.319 51.9622C387.168 52.0505 385.026 52.1276 382.906 52.2309C380.918 52.2801 379.087 52.3742 377.445 52.5115C376.815 52.5736 375.676 52.4769 375.247 52.607C374.818 52.737 373.954 52.7217 373.255 52.7648L371.049 52.8714C370.67 52.8968 370.253 52.9129 369.804 52.9194C367.753 52.9281 366.333 53.1017 364.43 53.1372L364.236 53.1176C360.856 53.3758 356.989 53.5175 352.747 53.5385C350.27 53.6177 347.561 53.6139 344.931 53.672C344.304 53.788 342.823 53.645 342.037 53.751C341.25 53.857 339.966 53.7875 338.952 53.805C337.938 53.8224 336.946 53.866 335.863 53.8645C334.922 53.865 334.127 53.9123 333.551 54.0022C332.236 54.1507 330.634 54.2381 328.815 54.2603C326.409 54.2989 324.134 54.3865 321.686 54.3673C321.721 54.4755 321.571 54.5677 321.251 54.6341C320.931 54.7006 320.453 54.7391 319.866 54.7456C317.249 54.7869 314.876 54.8945 312.225 54.9264L311.515 54.9267L303.585 54.9888C301.448 55.0008 299.389 55.0206 297.21 55.0343C296.394 54.9522 296.374 55.0935 295.809 55.0666C295.652 54.997 295.465 54.9663 295.187 55.004L295.127 55.0875L286.076 55.1982C282.532 55.2791 278.805 55.3034 274.925 55.2708C274.005 55.279 273.145 55.3067 272.361 55.3533C271.635 55.3704 270.877 55.3779 270.092 55.3759C269.031 55.3549 267.994 55.3443 266.986 55.3441C264.335 55.376 261.552 55.3588 258.648 55.3354C255.745 55.3121 253.545 55.3536 250.961 55.3504C249.211 55.3475 247.468 55.3335 245.657 55.3005C244.792 55.2852 243.726 55.2019 242.83 55.1715C241.935 55.1411 241.642 55.1416 241.524 55.1894C241.134 55.3233 240.154 55.2367 239.371 55.2236C237.844 55.2014 237.627 55.1556 237.212 54.8093L239.086 54.6993C239.546 54.6638 240.123 54.6575 240.764 54.6812C241.404 54.7048 242.086 54.7575 242.743 54.8342C243.001 54.8671 243.272 54.8931 243.538 54.9107C243.804 54.9282 244.062 54.9371 244.295 54.9366C246.186 54.9179 248.051 54.8785 249.868 54.8463L250.134 54.8253L250.151 54.5164C249.91 54.4861 249.661 54.461 249.412 54.4421L240.296 54.2417C238.204 54.1925 236.032 54.0815 233.979 54.0362C231.926 53.991 230.82 53.9633 229.227 53.9165C228.555 53.8898 227.869 53.8548 227.176 53.8117C227.216 53.7819 227.239 53.7503 227.245 53.7171C227.281 53.667 227.33 53.6003 227.035 53.5467C226.714 53.4711 226.284 53.4066 225.832 53.366C225.408 53.3391 224.996 53.3239 224.613 53.321C222.765 53.2951 220.653 53.132 218.729 52.8664L218.057 53.0436C215.167 52.944 212.235 52.8461 209.217 52.7515C208.612 52.7257 207.978 52.6762 207.361 52.6067C206.701 52.5402 206.093 52.4014 205.397 52.3255C204.71 52.2708 204.027 52.2282 203.362 52.1984C203.542 52.1528 203.78 52.1163 204.067 52.0901C204.35 52.081 204.555 52.0525 204.655 52.0088C204.754 51.9651 204.742 51.9085 204.62 51.8471C204.404 51.7419 204.31 51.6428 204.778 51.6302C205.211 51.6062 205.52 51.5542 205.67 51.4804C205.82 51.4066 205.804 51.314 205.624 51.2136C205.545 51.155 205.49 51.0975 205.458 51.0416L205.263 51.0221C204.622 50.8143 203.342 50.7392 202.423 50.5691C201.989 50.5198 201.54 50.4915 201.147 50.4885C200.13 50.452 199.141 50.436 198.09 50.39C197.588 50.3688 197.062 50.3302 196.545 50.2764C195.807 50.2021 195.729 50.1943 195.3 49.9243C195.966 49.929 196.494 49.8886 196.795 49.81C197.095 49.7315 197.15 49.6195 196.95 49.493C196.401 49.2168 195.82 48.9255 193.335 48.7293C194.146 48.7196 194.926 48.7004 195.672 48.6717C195.889 48.6655 196.052 48.6452 196.138 48.6135C196.224 48.5818 196.23 48.5403 196.154 48.4944C196.079 48.4485 195.926 48.4004 195.716 48.3567C195.506 48.3129 195.249 48.2756 194.979 48.2496C193.667 48.0933 192.298 47.9888 191.027 47.9476C189.955 47.9294 188.988 47.9396 187.737 47.9392L186.26 47.7906C186.284 47.7572 186.067 47.7115 186.123 47.6931C186.498 47.5219 186.912 47.3545 187.338 47.1705C186.657 47.0711 186.067 46.9511 185.636 46.8243C185.205 46.6975 184.949 46.5689 184.899 46.4533C184.863 46.4185 184.872 46.3867 184.927 46.3603C184.983 46.3339 185.082 46.3134 185.219 46.3004C185.608 46.2781 185.908 46.2354 186.097 46.1756C186.285 46.1159 186.356 46.0407 186.305 45.9558L185.157 45.6432C181.698 45.4201 178.302 45.2607 175.031 45.168L172.079 45.0979C171.722 45.0143 171.833 44.9776 172.168 44.9755C172.503 44.9734 173.446 44.9966 174.104 45.0091C174.673 45.0255 175.178 45.0147 175.57 44.9778C175.963 44.9409 176.229 44.8791 176.344 44.7984L175.353 44.4419C175.401 44.3751 175.47 44.2806 176.008 44.2869C176.376 44.2792 176.646 44.2455 176.777 44.1915C176.907 44.1374 176.889 44.0661 176.726 43.9889C176.702 43.933 176.739 43.8822 176.836 43.8387C177.631 43.8351 178.422 43.837 179.144 43.82C179.48 43.8144 179.764 43.7937 179.976 43.7594C180.188 43.7251 180.324 43.678 180.374 43.6213C180.4 43.5659 180.336 43.5028 180.189 43.4371C180.041 43.3714 179.813 43.3049 179.523 43.2431C178.392 43.1665 177.358 43.1655 176.647 43.2403C176.393 43.2989 175.986 43.331 175.478 43.3322C174.971 43.3334 174.387 43.3037 173.805 43.2471C173.137 43.1818 172.471 43.1531 171.926 43.1661C171.381 43.1792 170.994 43.2332 170.832 43.3183C170.147 43.2852 169.54 43.2599 168.94 43.2235C168.234 43.1776 167.565 43.1641 167.008 43.1844C166.116 43.1988 165.156 43.1904 164.148 43.1594C161.242 43.0821 158.332 43.0103 155.518 42.9781C154.774 42.9689 154.13 42.9937 153.394 42.9734C152.658 42.9531 152.075 43.008 151.155 42.8975C150.979 42.8803 150.803 42.8693 150.639 42.8652C150.476 42.8612 150.329 42.8643 150.212 42.8743C148.595 42.9617 146.7 42.9741 144.637 42.9106C141.811 42.8951 138.881 42.8512 136.051 42.8412C135.221 42.8498 134.437 42.8728 133.706 42.9099C133.15 42.9323 132.568 42.9475 131.962 42.9554C131.498 42.9625 131.055 42.9417 131.133 43.0631C131.211 43.1844 130.516 43.1085 130.115 43.0861C128.738 43.0272 127.33 42.9476 125.908 42.848C124.506 42.7398 123.133 42.6768 121.871 42.6628C120.959 42.6547 120.019 42.6855 118.846 42.5198C118.891 42.4586 118.935 42.3974 119.191 42.3335C118.235 42.1577 117.144 42.0064 116.008 41.8921C114.873 41.7779 113.725 41.704 112.661 41.6766L111.193 41.3438C110.832 41.3047 110.463 41.2763 110.109 41.2602C109.755 41.2441 109.423 41.2406 109.134 41.2501C108.91 41.2549 108.638 41.2426 108.366 41.2153C108.095 41.188 107.843 41.1476 107.657 41.1015C107.378 41.0429 107.037 40.9924 106.678 40.9562C106.318 40.9201 105.956 40.8999 105.635 40.8982C104.627 40.862 103.55 40.7785 102.516 40.6561C102.248 40.5843 102.08 40.5102 102.032 40.4428C101.985 40.3755 102.061 40.3178 102.25 40.277C102.556 40.2049 102.728 40.113 102.755 40.0069C102.782 39.9009 102.664 39.7828 102.409 39.6599C102.278 39.5844 102.234 39.513 102.28 39.4499C102.326 39.3868 102.461 39.3333 102.677 39.2927C103.481 39.1049 103.266 38.9996 101.95 38.6881C101.736 38.6361 101.478 38.5876 101.193 38.5455C100.907 38.5034 100.601 38.4688 100.292 38.4437C99.5682 38.3929 98.8542 38.3551 98.1631 38.3311C97.7745 38.2919 97.3759 38.3235 96.928 38.3083C94.6888 38.2324 94.361 38.1098 93.6358 37.8457L93.1073 37.6552C92.1271 37.5009 91.0551 37.3727 89.9685 37.2799C88.8819 37.1871 87.8078 37.1321 86.8235 37.1186C86.4323 37.1176 85.9825 37.0913 85.5432 37.0436C84.1133 36.8978 82.6652 36.7969 81.2949 36.7476C80.441 36.7199 79.5206 36.648 78.6441 36.5408C77.7676 36.4336 76.9724 36.2955 76.354 36.1431C75.7985 36.0058 75.0717 35.8826 74.2748 35.7906C73.342 35.6967 73.2556 35.5865 73.7765 35.5016C74.2974 35.4166 75.1699 35.3073 75.9443 35.218C76.2138 35.1877 76.3807 35.1383 76.4266 35.0754C76.4725 35.0126 76.3955 34.9386 76.2041 34.8619C76.0813 34.7307 76.0599 34.6061 76.1407 34.4913C76.1839 34.4435 76.1541 34.3888 76.0533 34.3308C75.9526 34.2728 75.7831 34.2128 75.5565 34.1549C75.3299 34.097 75.0514 34.0426 74.7396 33.9952C74.4279 33.9479 74.0902 33.9087 73.7494 33.8805C72.3113 33.7358 70.912 33.595 69.4455 33.4893C68.8309 33.4395 68.2169 33.3777 67.6187 33.3055C66.394 33.127 65.0839 32.979 63.7643 32.87C63.138 32.8213 62.5258 32.7361 62.06 32.6329C60.5908 32.3548 59.2371 32.0624 58.0233 31.761C57.7307 31.6675 57.348 31.5763 56.8989 31.4931C56.4499 31.4099 55.9443 31.3365 55.4139 31.2775C54.9863 31.2345 54.6383 31.1398 54.3088 31.0768C54.0693 30.9308 54.0437 30.7958 54.2344 30.6845C54.4252 30.5731 54.826 30.4889 55.3992 30.44C55.9428 30.3812 56.4514 30.3129 56.9213 30.2407C57.4877 30.1824 58.1611 30.1473 58.9164 30.1369C59.8109 30.1055 60.4723 30.016 60.8144 29.8799C58.3657 29.6336 56.0371 29.2799 53.8907 29.3626L52.2599 29.1388C52.3248 29.0498 52.3817 28.9719 52.4345 28.8995C52.8223 28.7679 52.9434 28.6019 52.7876 28.4155C52.6591 28.3254 52.6708 28.2433 52.8212 28.1777C52.9717 28.1121 53.2556 28.0652 53.6444 28.0419C55.9474 27.8018 58.6106 27.6397 60.7703 27.3673C61.4475 27.3161 62.2401 27.2929 63.115 27.2986C63.9614 27.2822 63.926 27.1592 62.952 27.0075C62.4053 26.9282 61.848 26.8522 61.2824 26.7798C58.7879 26.7677 57.7717 27.1313 54.9251 27.0301L53.6057 26.551C53.2489 26.5436 52.9026 26.5406 52.5691 26.5422L47.796 26.7369C47.3985 26.7467 47.089 26.78 46.9028 26.833C46.7166 26.8861 46.6611 26.9567 46.7426 27.037C46.7749 27.1352 46.7092 27.2253 46.5477 27.3041C46.4436 27.3592 46.5102 27.4324 46.7329 27.5078C47.2347 27.6777 46.5908 27.7026 46.1842 27.7453C46.0802 27.7494 45.9604 27.749 45.8316 27.7439C45.7027 27.7389 45.5675 27.7294 45.4337 27.7159C45.3 27.7025 45.1703 27.6854 45.0522 27.6656C44.9342 27.6458 44.8301 27.6237 44.7461 27.6006C44.0296 27.4389 43.403 27.2684 42.6987 27.0901C43.1987 26.9194 42.6104 26.6393 43.3906 26.4848C43.4779 26.454 43.5128 26.4164 43.4932 26.3744C43.4737 26.3324 43.4 26.2868 43.2768 26.2405C42.9591 26.1209 42.8078 26.0044 42.8381 25.9026C42.8685 25.8008 43.0794 25.7173 43.4496 25.6607L43.4942 25.5995C42.5179 25.3938 42.7766 25.2108 42.3931 24.993L41.4538 24.8508C39.1171 24.5082 39.113 24.5138 37.1012 24.5264C36.6957 24.396 37.2109 24.3762 37.5972 24.3613L40.8331 24.215C42.9487 24.1173 45.1258 24.0497 47.4892 24.0127C49.8525 23.9757 52.4873 23.8526 54.9301 23.7639C55.0536 23.757 55.1481 23.7435 55.2056 23.7243C55.2632 23.7052 55.282 23.681 55.2607 23.6539C55.1637 23.6245 55.0365 23.5962 54.8888 23.571C54.7411 23.5458 54.5766 23.5244 54.4073 23.5083C53.63 23.4301 52.8324 23.3797 52.004 23.3143L50.4596 23.2007L49.9845 23.0514C49.6753 22.9606 49.4641 22.8498 49.0528 22.7845C48.7138 22.7358 48.3459 22.6989 47.9872 22.6775C47.6286 22.6561 47.2924 22.6511 47.0137 22.663C46.241 22.6927 45.542 22.7359 44.8041 22.7751C44.0662 22.8144 43.6595 22.8571 43.0197 22.8763C41.7197 22.8851 40.4633 22.9082 39.256 22.9456C38.2391 23.0341 37.2985 23.1389 36.4402 23.2595C35.9048 23.3072 35.4041 23.3643 34.4898 23.3022C34.0561 23.2459 33.682 23.1719 33.4338 23.0933C33.1856 23.0148 33.0794 22.9368 33.1341 22.8732C33.1831 22.8233 33.322 22.7838 33.5376 22.7585C33.7532 22.7332 34.0383 22.7228 34.3661 22.7284C35.2839 22.7192 36.1325 22.6883 36.8949 22.6364C37.9561 22.5423 39.248 22.5017 40.6951 22.517C41.1859 22.5306 41.5148 22.4801 41.9441 22.4635C42.3734 22.447 42.7371 22.4059 43.2157 22.4362C44.7025 22.5141 45.4154 22.3947 46.3064 22.3171C46.6081 22.2827 46.7949 22.2271 46.8465 22.1565C46.8981 22.0858 46.8124 22.0028 46.5987 21.9166C46.1875 21.7448 45.6844 21.5721 45.0974 21.4012C44.7952 21.3172 44.4081 21.2374 43.9665 21.1681C43.5248 21.0988 43.0405 21.0419 42.5517 21.0018C42.2591 20.8967 42.103 20.7932 42.0975 20.7009C42.0921 20.6086 42.2374 20.5303 42.5203 20.4731C43.2414 20.3426 43.8806 20.2098 45.4962 20.2828C46.2558 20.3106 46.9707 20.316 47.6124 20.2986C49.0358 20.2748 50.6776 20.3269 52.3833 20.4501C52.8246 20.4816 53.2583 20.5032 53.6717 20.514C56.6204 20.5897 59.4299 20.6275 62.2475 20.6541C63.7401 20.6669 65.2449 20.663 66.8031 20.7003C70.4572 20.7813 73.7835 20.7397 77.3106 20.766C79.1578 20.7796 80.8112 20.7251 82.1841 20.6053C82.4515 20.5652 82.6811 20.5184 82.8703 20.4654C81.9605 20.3263 80.9612 20.2161 79.9681 20.1455C78.975 20.0749 78.0213 20.0461 77.1985 20.062C76.7462 20.1009 76.1615 20.1081 75.5097 20.0826C74.8579 20.0571 74.1647 20 73.5072 19.9176L75.4187 19.871C76.6862 19.8492 77.9845 19.8425 79.2172 19.8112C81.1757 19.7574 82.9908 19.6713 85.0188 19.6364C86.6562 19.6043 88.1214 19.5224 89.3684 19.3932C90.2693 19.2989 91.2983 19.232 92.4343 19.194C93.2418 19.1737 93.2418 19.1737 93.758 18.9808C93.3484 18.856 92.8188 18.8385 92.3199 18.8361C89.3289 18.7576 86.4825 18.7438 83.8387 18.7951C82.5048 18.7996 81.3214 18.8525 80.3453 18.9513C80.1063 18.9929 79.4949 18.9732 79.0041 18.9597C77.4656 18.9391 75.9951 18.9451 74.6104 18.9775C72.6959 19.0316 70.5636 19.0188 68.2964 18.9395C67.8665 18.8425 68.3614 18.8505 68.3857 18.8171C70.1417 18.7549 71.8629 18.6832 73.6537 18.6305C74.1432 18.6117 74.6665 18.6024 75.2176 18.6027C77.2752 18.6354 78.9898 18.5447 80.1213 18.3435C80.1781 18.2656 80.9224 18.2748 81.2513 18.2243C81.4131 18.1805 81.5208 18.129 81.5714 18.0713C81.0922 17.9276 80.5504 17.9268 80.1333 17.9267C78.923 17.9427 77.7586 17.9731 76.6458 18.0178C75.6113 18.0602 74.4663 18.0716 73.2416 18.0515C72.3378 18.0323 71.5651 18.062 70.6532 18.0539C70.1585 18.0368 69.6465 18.0093 69.1275 17.9721C69.7054 17.8719 70.4909 17.8103 71.4288 17.7915C72.14 17.7317 73.0293 17.7137 73.143 17.5579C72.807 17.4465 72.4328 17.4446 72.1324 17.4562C71.5069 17.4558 70.9027 17.4628 70.323 17.4772C69.0939 17.5089 67.763 17.5093 66.3585 17.4785C65.6189 17.467 64.9171 17.4705 64.2649 17.4889C62.7868 17.5134 61.3702 17.5679 60.0168 17.593C57.2445 17.6187 54.7159 17.7107 52.052 17.7593C51.4592 17.7713 50.9277 17.8134 50.1463 17.7407C49.3649 17.6681 49.3301 17.6586 49.2378 17.6135C49.0192 17.5383 48.9529 17.4653 49.0528 17.4098C49.2078 17.3579 49.5097 17.329 49.9049 17.3283C52.2862 17.2458 54.5448 17.1299 56.6666 16.9813C57.6004 16.9516 58.4186 16.8909 59.0926 16.8013C59.6271 16.7397 60.2612 16.6989 60.975 16.6802C62.013 16.6356 63.0952 16.6029 64.2172 16.5823C64.7392 16.5713 65.1831 16.5382 65.5227 16.4852C65.8623 16.4322 66.0908 16.3603 66.1947 16.2736L64.8192 15.986C64.6031 15.9726 64.3888 15.961 64.177 15.9512L52.7611 16.1584L51.6305 16.1641C50.3914 16.147 50.0885 16.1046 48.9132 15.7714C51.5956 15.6929 53.7043 15.4645 55.0291 15.1086C54.7108 15.0703 54.3843 15.0375 54.0574 15.0109C51.9137 14.9267 49.8873 14.9043 48.0561 14.9446C46.9684 14.9487 45.85 14.9377 44.7275 14.9323C45.0558 14.7682 46.3135 14.8171 47.1332 14.7801C49.0917 14.7222 50.8236 14.6027 52.2735 14.4253C52.7733 14.3562 53.3987 14.3119 54.121 14.2947C54.8438 14.2887 55.4476 14.2468 55.8798 14.1727C56.312 14.0986 56.5596 13.9944 56.6008 13.8693C56.6689 13.756 56.8157 13.6507 57.0388 13.555C56.644 13.4193 56.0171 13.2892 55.2757 13.1894C54.5343 13.0895 53.7295 13.0267 53.0122 13.0126C51.4809 12.9567 49.8926 12.8652 48.2877 12.7404C47.4883 12.6774 46.7044 12.6413 45.987 12.6343C45.3543 12.629 44.6351 12.5835 43.9392 12.5049C43.2433 12.4263 42.6089 12.3188 42.1326 12.1988C41.4898 12.0506 40.8899 11.9006 40.29 11.7507C39.6902 11.6008 38.9941 11.4113 38.2938 11.2274C37.6764 11.1986 37.0752 11.1802 36.4984 11.1722C36.0496 11.1789 35.5259 11.1589 34.9891 11.1144C34.4523 11.0699 33.9248 11.0029 33.4689 10.9212C33.7363 10.8406 34.0386 10.7695 34.3571 10.6761C33.9199 10.5528 33.603 10.4271 33.4256 10.3065C33.2481 10.186 33.2139 10.0732 33.3249 9.97508C33.3899 9.88607 32.9147 9.73674 32.7505 9.6187C32.5391 9.51694 32.4994 9.42198 32.6366 9.34625C32.7737 9.27053 33.0813 9.2176 33.5191 9.19438C34.062 9.15153 34.5039 9.08699 34.8266 9.00343C34.9333 8.98174 34.9877 8.95202 34.9846 8.91702C34.9816 8.88201 34.9213 8.84282 34.8092 8.80303C34.6971 8.76324 34.5369 8.72412 34.3431 8.68926C34.1493 8.65439 33.9282 8.62488 33.7 8.60343C33.0008 8.54264 32.3064 8.50323 31.6567 8.48747C30.5375 8.45849 29.4661 8.44028 28.4424 8.43285C27.3102 8.42167 26.0507 8.35266 24.7917 8.23281C23.6645 8.11942 22.6539 8.01776 22.1028 7.80107C21.5516 7.58439 20.6704 7.59129 19.9928 7.43355C20.3734 7.29135 21.05 7.19256 21.9541 7.14712C22.5458 7.1309 23.0397 7.08834 23.4041 7.02216C23.7685 6.95598 23.9954 6.86764 24.0703 6.76281L22.0131 6.32296C20.3702 6.11588 19.4612 6.27526 17.686 6.19223L19.5151 6.02986C19.5519 6.01381 19.5656 5.99497 19.5557 5.97423C19.3781 5.64582 19.0956 5.5756 17.2258 5.39348L16.1764 5.28791L14.5155 5.16263C14.2495 5.09532 14.0656 5.02514 13.982 4.95909C13.8984 4.89304 13.9181 4.83344 14.0392 4.78625C14.2825 4.7069 14.3565 4.6055 14.2543 4.49138C14.0932 4.41579 14.08 4.3461 14.2168 4.29441C14.3535 4.24272 14.6318 4.21229 15.0032 4.2084C15.2996 4.20239 15.3217 4.11503 15.4829 4.06556C15.6431 3.99737 15.9174 3.94506 16.287 3.91216C16.6565 3.87926 17.1127 3.86655 17.6246 3.87491C19.1337 3.88174 20.5513 3.85614 21.8524 3.79858L21.6192 3.77512C22.9753 3.82565 24.2431 3.83178 25.3609 3.79321C26.481 3.74466 27.9186 3.7758 29.1084 3.74619C30.077 3.75299 30.8144 3.68579 31.1642 3.55886C31.503 3.43767 32.734 3.46595 33.6767 3.48912C34.2351 3.5041 34.7748 3.51045 35.29 3.50809C35.9816 3.48066 36.8462 3.50652 37.7398 3.58136C38.008 3.60436 38.2721 3.61653 38.5068 3.6167C40.7785 3.64816 43.0461 3.68517 45.287 3.70159C45.8043 3.69213 46.4108 3.71379 47.0355 3.76401C47.298 3.78581 47.5535 3.79485 47.7676 3.78989C51.3086 3.74001 55.3044 3.86727 58.7757 3.79844C59.1965 3.78219 59.6623 3.77881 60.1599 3.78839C61.2782 3.82882 62.2493 3.8028 62.9259 3.71429C63.2909 3.66721 63.7588 3.64127 64.2999 3.63812C64.8409 3.63497 65.4432 3.65468 66.0683 3.69599C67.1085 3.75069 68.0699 3.75662 68.851 3.71316C70.374 3.673 71.9757 3.6565 73.6433 3.66375C74.1543 3.67078 74.6035 3.65518 74.9561 3.61815C75.3087 3.58113 75.5552 3.52368 75.6765 3.45025C75.2669 3.32544 74.8191 3.31025 74.3939 3.32122C72.7458 3.29278 71.1018 3.25878 69.4844 3.24538C68.0368 3.20709 66.6478 3.19539 65.3378 3.21044C64.6873 3.22741 63.8757 3.1887 63.08 3.10275C62.1048 2.99389 61.1004 2.9398 60.2699 2.95144C59.6541 2.95433 59.0042 2.94495 58.3294 2.92344C57.8975 2.89751 57.4548 2.85298 57.0468 2.79442C56.8849 2.76898 56.7086 2.7476 56.5293 2.73163C56.3501 2.71566 56.1718 2.70547 56.0057 2.70169C55.8397 2.69791 55.6894 2.70062 55.5648 2.70967C55.4403 2.71872 55.344 2.73391 55.2821 2.75425C54.6574 2.92431 53.2604 2.83752 52.0642 2.81871C50.2716 2.53089 48.9375 2.70125 47.2621 2.53868C47.1296 2.5279 46.999 2.52137 46.8785 2.51951C46.7579 2.51764 46.6498 2.52048 46.5607 2.52784C43.3185 2.62568 39.5397 2.54414 36.1356 2.57793C35.7602 2.58287 35.3244 2.56594 34.8779 2.52905C31.9597 2.2849 29.154 2.21559 27.0092 2.33467C26.7483 2.34539 26.4514 2.34585 26.1322 2.33602C24.6658 2.23898 23.2635 2.2003 22.0424 2.22319C20.1286 2.2158 18.2885 2.22179 16.344 2.19936C15.0035 2.16744 13.8276 2.20154 12.934 2.29825C12.9056 2.33719 12.3104 2.29523 11.8544 2.29116C11.5922 2.19312 11.3648 2.10456 11.0945 2.01765C10.8528 1.91012 10.4908 1.8013 10.0331 1.69859C9.57533 1.59587 9.03265 1.50166 8.44156 1.42231C7.43099 1.32065 7.32992 1.17312 8.03706 1.11885C9.85972 0.939286 12.1516 0.865793 14.7443 0.903763C16.9115 0.906799 19.1178 0.91375 21.3158 0.931823C22.5978 0.947327 23.9494 0.981765 25.1966 0.987793C25.6175 1.00104 26.0498 1.02057 26.4892 1.04616C27.0282 1.08326 27.5516 1.10348 28.0311 1.10572C29.5709 1.07447 31.2892 1.1017 33.1042 1.18609C33.7691 1.20449 34.4074 1.21069 35.0099 1.2046C36.4351 1.1817 37.9802 1.19855 39.6043 1.25473C40.6137 1.28641 41.5925 1.30297 42.5304 1.30424C42.8617 1.30771 43.1314 1.2811 43.4505 1.30125C46.2588 1.5121 48.2474 1.3598 50.775 1.44088C52.0034 1.46349 53.177 1.46355 54.2794 1.44107C56.4307 1.44216 58.6419 1.46528 60.9043 1.51033C63.8959 1.58435 66.6682 1.55866 69.5247 1.58923C70.0886 1.59565 70.6331 1.59455 71.1542 1.58594C73.6892 1.52907 76.4425 1.54113 79.3471 1.62184C80.0067 1.6335 80.599 1.61924 81.0871 1.57997C81.5752 1.5407 81.9486 1.47725 82.1837 1.39361C82.2832 1.3362 82.2188 1.26163 82.0028 1.1843C81.6442 1.08553 81.2394 0.988759 80.7949 0.895579L64.6265 0.582903C63.9475 0.566574 63.2853 0.557786 62.6432 0.556569C60.7549 0.553852 58.8085 0.529526 56.8137 0.483717C54.8425 0.440688 52.9594 0.448326 51.0497 0.435369C50.4871 0.43103 49.9097 0.420792 49.3198 0.404681C45.3324 0.277178 41.4442 0.199301 37.6827 0.171609C36.1002 0.167678 34.3906 0.109162 32.7773 0.0901954C31.164 0.0712283 28.9578 0.0642844 27.0441 0.056892L21.1189 0.0580283C19.9535 0.0542543 18.8187 0.0655136 17.6881 0.0712136C16.3161 -0.335548 15.8433 -0.430891 14.0124 -0.609099C13.386 -0.674835 12.7489 -0.714065 12.1758 -0.722194C10.3583 -0.690038 8.07784 -0.823893 6.35434 -0.806172C5.31436 -0.814913 4.43189 -0.769726 3.79727 -0.675234C3.24638 -0.601077 2.61642 -0.542399 1.91713 -0.500087C0.00152992 -0.848062 -0.167292 -1.07406 1.27368 -1.16201C1.66409 -1.18245 2.20184 -1.17613 2.48377 -1.21943C2.64553 -1.2458 2.86651 -1.26089 3.1291 -1.26349C3.39169 -1.2661 3.68863 -1.25616 3.99663 -1.23445C4.96869 -1.17751 5.87979 -1.16412 6.63851 -1.19562C7.35256 -1.23732 8.22781 -1.23566 9.17991 -1.19078C9.87954 -1.1204 10.4945 -1.21978 11.0995 -1.2485C11.7046 -1.27721 12.2011 -1.32879 13.1461 -1.25163C13.3192 -1.23627 13.491 -1.22705 13.6483 -1.22468C13.8057 -1.2223 13.9445 -1.22684 14.054 -1.23794C15.069 -1.28763 16.2801 -1.2824 17.5892 -1.2227C19.5969 -1.16395 21.4807 -1.16175 23.175 -1.21617C24.1893 -1.26378 25.0541 -1.34822 25.7356 -1.46619C25.9214 -1.50565 26.1972 -1.52931 26.5367 -1.53491C28.2415 -1.51029 30.0926 -1.41765 31.9707 -1.26297C32.6782 -1.20099 33.3848 -1.15196 34.0753 -1.11694C35.4947 -1.03912 36.8674 -0.995522 38.1529 -0.98742C40.0209 -0.986135 41.9658 -0.956195 43.9703 -0.897875C45.2074 -0.865401 46.3994 -0.853416 47.5321 -0.862049C48.6964 -0.866118 49.9396 -0.841348 51.2333 -0.788312C52.5199 -0.745095 53.6538 -0.769997 54.4981 -0.860001C54.7762 -0.908504 55.0001 -0.966097 55.1658 -1.03171C53.282 -1.24521 51.3337 -1.35372 49.7132 -1.33538C49.0977 -1.34952 48.5867 -1.33524 47.9381 -1.4184L47.9178 -1.39059C47.7887 -1.37254 47.594 -1.36828 47.3707 -1.37862C47.1475 -1.38897 46.9113 -1.41319 46.7071 -1.44668C46.7843 -1.55239 46.8573 -1.65254 46.9101 -1.72486C48.1448 -1.7121 49.3436 -1.71314 50.5005 -1.72797C51.4756 -1.74931 52.7994 -1.56239 53.6435 -1.63275C55.2898 -1.54476 56.3381 -1.66625 57.8144 -1.63119C59.2908 -1.59614 60.9169 -1.48033 62.3933 -1.44528C63.6816 -1.42604 64.9325 -1.42186 66.139 -1.43275C66.5555 -1.44804 67.0356 -1.44446 67.5499 -1.42221C68.2728 -1.38036 68.9452 -1.37335 69.49 -1.40198C70.0348 -1.43062 70.4299 -1.49375 70.6302 -1.58412C70.4416 -1.66878 70.1876 -1.77795 69.8946 -1.89103C70.4336 -1.98394 71.2521 -2.02307 72.2288 -2.00258L73.609 -2.00707C73.9747 -2.00461 74.2543 -2.02973 74.3899 -2.07723C74.5255 -2.12472 74.5068 -2.19095 74.3376 -2.26223C71.7206 -2.62104 71.6242 -2.66059 69.7036 -2.4298L67.1534 -2.53705L67.1963 -2.5387ZM101.69 -1.55305L101.496 -1.5726L101.69 -1.55305ZM419.495 36.6222L419.45 36.6834L419.499 36.6167L419.926 36.6597L419.955 36.6207L419.495 36.6222ZM357.419 9.79826C356.815 9.7315 356.204 9.67011 355.592 9.61449C355.432 9.60587 355.282 9.60392 355.155 9.60881C355.028 9.6137 354.927 9.62529 354.862 9.6426C354.813 9.70936 355.155 9.75568 355.466 9.78696C355.858 9.82906 356.259 9.85582 356.627 9.86446C356.994 9.87311 357.316 9.86335 357.558 9.83616L357.91 9.8118L357.419 9.79826ZM46.1547 26.0702C46.5526 26.0814 46.9299 26.0832 47.2773 26.0756C48.8186 26.0216 50.2943 25.9431 51.8745 25.8931C53.8683 25.766 56.1594 25.7143 58.6618 25.7398C59.6394 25.7523 60.4654 25.7111 61.0432 25.621C61.3891 25.5727 61.8356 25.5445 62.3553 25.5381L68.9708 25.3914C69.3798 25.3609 69.7333 25.3183 70.0232 25.2643C69.4401 25.2057 69.0515 25.1666 68.8183 25.1431C68.3344 25.1365 67.9185 25.1544 67.6122 25.195C67.2833 25.2638 66.7273 25.291 66.0546 25.2712C65.3755 25.2549 64.7133 25.2461 64.0713 25.2449C62.8589 25.2483 61.6382 25.2629 60.4217 25.2719C59.9484 25.4631 58.5515 25.3764 57.3553 25.3575L56.4312 25.3661C53.4105 25.4653 50.525 25.6017 47.7888 25.7747C47.26 25.804 46.8044 25.8507 46.4361 25.9133C46.2973 25.9622 46.2528 26.0231 46.3062 26.0914L46.1119 26.0718L46.1547 26.0702ZM181.046 44.3578C181.779 44.3708 182.542 44.3976 183.324 44.4376C183.927 44.4786 184.515 44.5034 185.065 44.5112C188.146 44.5541 191.356 44.6531 194.653 44.8069C195.084 44.8302 195.499 44.8417 195.88 44.8408L198.579 44.8017C199.429 44.7798 199.446 44.7575 198.827 44.4623C198.313 44.4051 197.793 44.3528 197.272 44.3059C196.961 44.2747 196.456 44.2238 196.337 44.2717C195.616 44.4022 194.301 44.3176 193.195 44.29C189.993 44.2186 186.69 44.1133 183.457 44.027C182.774 44.0059 182.112 43.9952 181.478 43.9951C181.085 43.9907 180.726 43.999 180.417 44.0197C180.327 44.0219 180.251 44.028 180.195 44.0379C180.139 44.0477 180.104 44.0609 180.093 44.0767C180.081 44.0925 180.093 44.1105 180.128 44.1294C180.163 44.1484 180.22 44.1679 180.295 44.1866C180.56 44.2524 180.865 44.3153 181.202 44.3734L181.046 44.3578ZM204.504 1.51604L207.659 1.48104C208.037 1.47729 208.358 1.4379 208.763 1.45475C210.923 1.50813 212.923 1.49326 214.678 1.41076C215.275 1.3771 215.974 1.37036 216.736 1.39094C219.07 1.4519 221.272 1.45441 223.281 1.39839C224.58 1.38715 225.796 1.34939 226.91 1.28566C226.996 1.27087 227.049 1.25079 227.067 1.22679C227.084 1.20278 227.065 1.17543 227.011 1.14658C226.997 1.12835 226.959 1.10874 226.899 1.08911C226.84 1.06947 226.76 1.05027 226.666 1.03283C226.571 1.0154 226.465 1.00014 226.353 0.9881C226.241 0.976064 226.127 0.967531 226.019 0.963106C224.611 0.876852 223.275 0.846806 222.119 0.875401C221.048 0.909613 219.894 0.919626 218.676 0.905278C217.511 0.901505 216.72 1.01307 215.28 0.92794C214.671 0.899909 214.134 0.909136 213.759 0.954079C213.005 1.02857 211.952 1.03272 210.789 0.965773C210.092 0.931893 209.427 0.917364 208.817 0.92274C207.339 0.947231 205.927 0.996232 204.557 1.04358C204.125 1.05453 203.663 1.05605 203.177 1.04808L196.319 0.955367C194.671 0.926927 193.027 0.892921 191.409 0.879519C190.087 0.850415 188.856 0.85953 187.76 0.906541C186.592 0.955952 185.317 0.976012 183.961 0.966341C181.856 0.993381 179.762 1.00372 177.47 1.00009C176.008 1.00232 174.511 0.995091 172.984 0.972818C172.211 0.944151 171.555 0.967497 171.142 1.03836C170.891 1.0967 170.3 1.04917 169.809 1.03563C167.191 0.905137 164.736 0.874217 162.616 0.945023C162.345 0.956561 162.048 0.960738 161.73 0.957484C159.688 0.955051 157.572 0.939236 155.611 0.939061C155.095 0.944562 154.609 0.959658 154.159 0.984157C154.208 1.02412 154.345 1.06744 154.543 1.10513C154.74 1.14282 154.984 1.17198 155.222 1.18657C157.076 1.29823 158.867 1.35722 160.518 1.36105C163.267 1.34683 166.146 1.37881 169.126 1.45665C171.439 1.53513 173.547 1.51861 175.295 1.40831C176.661 1.32602 178.438 1.35698 180.321 1.49589C181.126 1.56223 181.909 1.58876 182.56 1.57185C183.187 1.54966 183.906 1.55504 184.676 1.58767C186.299 1.64971 187.86 1.67849 189.328 1.67344C190.763 1.6506 192.102 1.58822 193.576 1.56929C195.05 1.55036 197.295 1.56121 199.113 1.52905C200.93 1.49689 202.727 1.49256 204.504 1.51604ZM73.7883 -1.73821C73.9548 -1.56618 74.5443 -1.45911 75.1784 -1.41324C77.3644 -1.20956 79.5256 -1.12289 81.2991 -1.16777C82.2571 -1.23037 83.5342 -1.20627 84.8795 -1.10021C86.446 -0.989961 87.9101 -0.971676 89.0139 -1.04858C89.2843 -1.06202 89.4914 -1.09043 89.6167 -1.13128C89.641 -1.16466 89.6857 -1.22585 89.6938 -1.23698C89.5778 -1.2652 89.4356 -1.29135 89.2781 -1.31341C89.1206 -1.33546 88.952 -1.35284 88.7854 -1.3642L81.5444 -1.56112L80.2826 -1.60445C77.9778 -1.71798 75.7817 -1.76321 73.7883 -1.73821ZM88.0312 0.984538C89.1613 1.26544 89.1653 1.25986 89.7442 1.32408C92.5374 1.5908 95.3286 1.73478 97.7858 1.73889C98.3319 1.73808 98.7954 1.71096 99.137 1.65983C99.3127 1.6529 99.4246 1.63088 99.4481 1.59857C99.4717 1.56626 99.4051 1.52628 99.2628 1.48736L98.3642 1.28946C96.7321 1.20379 95.1235 1.13571 93.5481 1.08565C91.7137 1.02653 90.0882 1.02425 88.1866 1.00017L88.0312 0.984538ZM180.911 43.1139C181.964 43.5005 181.968 43.495 183.731 43.5947C184.959 43.6654 186.151 43.7068 187.271 43.7179C188.639 43.7301 190.041 43.7517 191.405 43.7695C191.738 43.7818 192.021 43.7716 192.197 43.7408C192.374 43.71 192.432 43.6609 192.361 43.6029C192.182 43.54 191.902 43.4791 191.567 43.4302C191.231 43.3813 190.86 43.3472 190.513 43.3334L189.769 43.3243C188.865 43.305 187.927 43.2763 187.054 43.272C186.487 43.2881 185.831 43.2757 185.136 43.2358C184.441 43.196 183.727 43.1298 183.049 43.0424L180.911 43.1139ZM93.6542 -1.23272C93.9354 -1.16577 94.2534 -1.10164 94.5998 -1.04205C95.941 -0.876875 97.3604 -0.783063 98.58 -0.779003C99.1566 -0.768772 99.6839 -0.805303 100.271 -0.752216C101.324 -0.681276 102.344 -0.643488 103.277 -0.640898C103.277 -0.640898 103.539 -0.656388 103.625 -0.659696L103.803 -0.904491C103.362 -0.961202 102.901 -1.00753 102.443 -1.04134C100.905 -1.10647 99.3938 -1.151 97.8867 -1.20109C96.3795 -1.25118 95.854 -1.27419 94.8684 -1.29571C94.4287 -1.28388 94.0221 -1.26278 93.6542 -1.23272ZM60.3507 29.2002L62.3633 29.7013C63.0145 29.7448 63.6229 29.7527 64.0959 29.7238C64.5689 29.6948 64.8805 29.6306 64.9835 29.5409C65.1492 29.4989 65.1658 29.4367 65.0298 29.3674C64.8937 29.298 64.6155 29.2269 64.2537 29.1689C63.9054 29.1001 63.5078 29.0385 63.0855 28.9878C62.6631 28.9371 62.2251 28.8984 61.7986 28.8741L60.3507 29.2002ZM77.1071 26.7055C75.7908 26.6206 74.5318 26.5859 73.4263 26.604C72.7299 26.6537 71.7861 26.6378 70.7886 26.5596C68.9746 26.4037 67.226 26.3606 65.9116 26.4393C65.9116 26.4393 65.8628 26.506 65.6401 26.5254C65.4173 26.5448 66.3009 26.5919 66.4952 26.6114C67.9205 26.6593 69.354 26.696 70.5931 26.7131C71.3624 26.7124 72.1761 26.7282 73.0203 26.7602C74.1817 26.8097 75.2832 26.8257 76.2817 26.8076C76.2817 26.8076 76.668 26.7928 77.1031 26.7111L77.1071 26.7055ZM217.683 0.608284C217.054 0.513922 216.373 0.437229 215.689 0.383965C215.005 0.3307 214.337 0.302248 213.735 0.300733C213.274 0.29581 212.901 0.320724 212.675 0.371538C212.449 0.422352 212.383 0.496164 212.488 0.581304C212.954 0.628226 213.576 0.690783 213.926 0.725974C215.138 0.722532 216.172 0.677284 217.683 0.608284ZM335.376 8.56016C334.871 8.4842 334.315 8.42612 333.772 8.39256C333.228 8.35899 332.719 8.35131 332.302 8.37036C332.087 8.37863 332.233 8.46494 332.196 8.51502C332.172 8.52637 332.172 8.54048 332.197 8.55589C332.221 8.5713 332.269 8.58744 332.335 8.6026C332.4 8.61776 332.482 8.63139 332.57 8.64207C332.659 8.65274 332.752 8.66007 332.839 8.66328C333.386 8.69601 333.903 8.70574 334.343 8.69163C334.782 8.67752 335.132 8.64 335.359 8.58241L335.376 8.56016ZM343.261 9.64606C343.183 9.60123 343.017 9.55452 342.793 9.51447C342.57 9.47442 342.303 9.44372 342.044 9.42802C341.584 9.4259 341.166 9.43833 340.807 9.46484C340.416 9.48528 340.697 9.61506 341.225 9.69206C341.449 9.72296 341.688 9.74707 341.923 9.76246C342.158 9.77785 342.383 9.7841 342.58 9.78072C342.777 9.77733 342.94 9.7644 343.057 9.74296C343.174 9.72151 343.241 9.69214 343.253 9.65719L343.261 9.64606ZM114.125 -0.755948C112.949 -0.916105 112.043 -0.875814 111.047 -0.940184C110.051 -1.00455 109.806 -1.01133 109.939 -0.908323C110.073 -0.80532 110.755 -0.826209 111.183 -0.783198C111.761 -0.726127 112.342 -0.693355 112.861 -0.688543C113.381 -0.683729 113.819 -0.707067 114.125 -0.755948ZM359.282 26.3428C358.659 26.3069 358.048 26.2815 357.46 26.267C357.382 26.2819 357.334 26.3014 357.317 26.3243C357.3 26.3472 357.316 26.3731 357.362 26.4005C357.362 26.4005 357.761 26.4825 357.995 26.5059C358.854 26.5864 358.896 26.4712 359.282 26.3428ZM447.357 41.2644C447.778 41.3726 447.975 41.4461 448.313 41.498C448.468 41.516 448.628 41.5291 448.782 41.5363C448.936 41.5434 449.078 41.5445 449.2 41.5395C449.349 41.5083 449.383 41.4607 449.298 41.406C449.298 41.406 448.868 41.309 448.704 41.3045C448.238 41.2816 447.785 41.2681 447.357 41.2644ZM94.0997 -1.67164C93.2057 -1.76157 92.3505 -1.8476 91.7316 -1.74265C93.1511 -1.6297 93.1512 -1.6297 94.0997 -1.67164ZM108.579 -0.645047C107.676 -0.837379 107.146 -0.854833 106.713 -0.832733C106.621 -0.827167 106.56 -0.814762 106.539 -0.7974C106.519 -0.780038 106.54 -0.758664 106.599 -0.736508C106.658 -0.714351 106.753 -0.692622 106.868 -0.674604C106.983 -0.656586 107.113 -0.64326 107.238 -0.636646C107.708 -0.631109 108.157 -0.63392 108.579 -0.645047ZM155.039 -0.563718C155.059 -0.591535 155.083 -0.624917 154.85 -0.648378C154.789 -0.660287 154.717 -0.670528 154.642 -0.678077C154.567 -0.685628 154.491 -0.690215 154.422 -0.691382C154.422 -0.691382 154.398 -0.657999 154.382 -0.635744L155.039 -0.563718ZM187.301 45.62L186.782 45.6454L187.015 45.6689L187.631 45.683L187.301 45.62ZM370.113 9.21199C369.918 9.19244 369.724 9.17289 369.695 9.21183C369.654 9.21786 369.629 9.22657 369.621 9.23722C369.614 9.24786 369.624 9.26014 369.651 9.27303C369.651 9.27303 369.923 9.3004 370.04 9.31214L370.113 9.21199ZM339.846 9.52347C339.718 9.52124 339.603 9.52385 339.507 9.53114L339.482 9.56452L339.871 9.60362L339.846 9.52347ZM76.0806 17.4772C75.9305 17.4569 75.7714 17.4409 75.6142 17.4302L75.4198 17.4107C75.4198 17.4107 75.6286 17.4675 75.7452 17.4793C75.8619 17.491 75.9559 17.4766 76.0806 17.4772Z" fill="#E77E36"/>
</svg>
