<svg width="50" height="50" viewBox="0 0 50 50" fill="none" xmlns="http://www.w3.org/2000/svg">
<g filter="url(#filter0_d)">
<path fill-rule="evenodd" clip-rule="evenodd" d="M25 38C33.2843 38 40 31.2843 40 23C40 14.7157 33.2843 8 25 8C16.7157 8 10 14.7157 10 23C10 31.2843 16.7157 38 25 38Z" fill="white"/>
</g>
<path fill-rule="evenodd" clip-rule="evenodd" d="M24.9993 15.5C20.8578 15.5 17.5 18.8578 17.5 23.0002C17.5 26.3139 19.6488 29.1247 22.6291 30.1169C23.0043 30.1855 23.1411 29.9539 23.1411 29.755C23.1411 29.5773 23.1346 29.1054 23.1309 28.4797C21.0448 28.9327 20.6046 27.4741 20.6046 27.4741C20.2634 26.6081 19.7717 26.3774 19.7717 26.3774C19.0907 25.9119 19.8233 25.9211 19.8233 25.9211C20.5761 25.9745 20.972 26.6942 20.972 26.6942C21.641 27.8402 22.7276 27.5091 23.1549 27.3176C23.223 26.8328 23.4164 26.5022 23.6309 26.3148C21.9656 26.1256 20.2146 25.4819 20.2146 22.608C20.2146 21.7893 20.507 21.1199 20.9868 20.5955C20.9094 20.4058 20.652 19.6433 21.06 18.6106C21.06 18.6106 21.6898 18.4089 23.1226 19.3795C23.7207 19.2133 24.3625 19.1299 25.0002 19.1272C25.637 19.1299 26.2788 19.2133 26.8778 19.3795C28.3097 18.4089 28.9382 18.6106 28.9382 18.6106C29.3475 19.6433 29.0901 20.4058 29.0128 20.5955C29.4935 21.1199 29.784 21.7893 29.784 22.608C29.784 25.4893 28.0302 26.1233 26.3594 26.3088C26.6287 26.5404 26.8686 26.9981 26.8686 27.6979C26.8686 28.7002 26.8594 29.5092 26.8594 29.755C26.8594 29.9558 26.9943 30.1892 27.3751 30.116C30.3531 29.122 32.5 26.3129 32.5 23.0002C32.5 18.8578 29.1417 15.5 24.9993 15.5Z" fill="black"/>
<defs>
<filter id="filter0_d" x="0" y="0" width="50" height="50" filterUnits="userSpaceOnUse" color-interpolation-filters="sRGB">
<feFlood flood-opacity="0" result="BackgroundImageFix"/>
<feColorMatrix in="SourceAlpha" type="matrix" values="0 0 0 0 0 0 0 0 0 0 0 0 0 0 0 0 0 0 127 0" result="hardAlpha"/>
<feOffset dy="2"/>
<feGaussianBlur stdDeviation="5"/>
<feColorMatrix type="matrix" values="0 0 0 0 0 0 0 0 0 0 0 0 0 0 0 0 0 0 0.1 0"/>
<feBlend mode="normal" in2="BackgroundImageFix" result="effect1_dropShadow"/>
<feBlend mode="normal" in="SourceGraphic" in2="effect1_dropShadow" result="shape"/>
</filter>
</defs>
</svg>
