<svg width="100" height="101" viewBox="0 0 100 101" fill="none" xmlns="http://www.w3.org/2000/svg">
<path fill-rule="evenodd" clip-rule="evenodd" d="M2.34555 11.2297C0 15.7451 0 21.6773 0 33.5417V66.4583C0 78.3227 0 84.2549 2.34555 88.7703C4.32213 92.5754 7.42463 95.6779 11.2297 97.6544C15.7451 100 21.6773 100 33.5417 100H37.4848C37.4919 99.2007 37.5648 90.8278 37.5395 86.5311C23.6318 89.5515 20.6973 79.8274 20.6973 79.8274C18.4229 74.0538 15.1447 72.516 15.1447 72.516C10.605 69.4127 15.4885 69.4741 15.4885 69.4741C20.507 69.8302 23.1468 74.6278 23.1468 74.6278C27.6067 82.2677 34.8506 80.0607 37.6991 78.7838C38.1534 75.5517 39.4426 73.3478 40.8729 72.0985C29.7707 70.837 18.0975 66.5459 18.0975 47.3863C18.0975 41.9288 20.0466 37.4658 23.245 33.9697C22.7293 32.7051 21.0135 27.622 23.733 20.7372C23.733 20.7372 27.9321 19.3928 37.4842 25.8632C41.4715 24.7552 45.7503 24.1996 50.0015 24.1812C54.2466 24.1996 58.5254 24.7552 62.5188 25.8632C72.0648 19.3928 76.2546 20.7372 76.2546 20.7372C78.9834 27.622 77.2675 32.7051 76.7519 33.9697C79.9564 37.4658 81.8932 41.9288 81.8932 47.3863C81.8932 66.595 70.2016 70.8216 59.0625 72.0586C60.8582 73.6026 62.4574 76.6536 62.4574 81.3192C62.4574 87.3117 62.5138 99.0482 62.5185 100H66.4583C78.3227 100 84.2549 100 88.7703 97.6544C92.5754 95.6779 95.6779 92.5754 97.6544 88.7703C100 84.2549 100 78.3227 100 66.4583V33.5417C100 21.6773 100 15.7451 97.6544 11.2297C95.6779 7.42463 92.5754 4.32213 88.7703 2.34555C84.2549 0 78.3227 0 66.4583 0H33.5417C21.6773 0 15.7451 0 11.2297 2.34555C7.42463 4.32213 4.32213 7.42463 2.34555 11.2297Z" fill="black"/>
<path fill-rule="evenodd" clip-rule="evenodd" d="M37.4842 100.061C37.4842 100.061 37.566 91.0457 37.5394 86.5309C23.6317 89.5512 20.6973 79.8272 20.6973 79.8272C18.4228 74.0535 15.1446 72.5157 15.1446 72.5157C10.6049 69.4125 15.4884 69.4739 15.4884 69.4739C20.507 69.8299 23.1467 74.6275 23.1467 74.6275C27.6067 82.2674 34.8506 80.0604 37.699 78.7835C38.1533 75.5514 39.4425 73.3475 40.8729 72.0983C29.7706 70.8367 18.0975 66.5456 18.0975 47.386C18.0975 41.9285 20.0466 37.4655 23.2449 33.9694C22.7293 32.7048 21.0134 27.6218 23.733 20.737C23.733 20.737 27.932 19.3925 37.4842 25.863C41.4714 24.7549 45.7502 24.1993 50.0014 24.1809C54.2465 24.1993 58.5253 24.7549 62.5187 25.863C72.0647 19.3925 76.2545 20.737 76.2545 20.737C78.9833 27.6218 77.2675 32.7048 76.7518 33.9694C79.9563 37.4655 81.8932 41.9285 81.8932 47.386C81.8932 66.5947 70.2016 70.8214 59.0625 72.0583C60.8581 73.6023 62.4573 76.6533 62.4573 81.3189C62.4573 87.5675 62.5187 100.061 62.5187 100.061H37.4842Z" fill="white"/>
</svg>
