<svg width="1491" height="987" viewBox="0 0 1491 987" fill="none" xmlns="http://www.w3.org/2000/svg">
<path opacity="0.5" d="M318.635 73.9837C198.697 159.388 180.111 320.881 98.8812 440.02C70.6044 481.476 34.0669 518.578 15.0039 564.568C-28.7616 669.836 31.4722 789.245 112.093 872.853C150.537 912.738 195.441 949.279 249.77 966.09C291.55 979.019 336.348 979.558 380.325 979.894L1150.79 986.628C1236.81 987.369 1332.39 984.698 1394.24 928.27C1436.87 889.418 1454.18 832.676 1468.88 778.516C1486.93 711.966 1503.3 639.692 1475.2 576.307C1443.12 503.787 1361.96 462.69 1311.55 400.112C1229.74 298.727 1231.62 145.382 1127.44 64.4445C1078.8 26.6692 1014.62 11.8554 952.084 4.44851C834.184 -9.53485 722.507 16.8607 606.725 13.1797C507.756 10.0374 400.739 15.514 318.635 73.9837Z" fill="#FFE4B7"/>
</svg>
