<svg id="e40ae415-f6eb-4b60-b20a-bf24308de0ef" data-name="Layer 1" xmlns="http://www.w3.org/2000/svg" width="24" height="24" viewBox="0 0 24 24"><g id="a54c910d-6039-421c-abae-e43da4eb67b0" data-name="Group 2074"><g id="fa816d68-c7ca-4395-8ff8-1bbf786e31b5" data-name="Group 2078"><g id="e51469d6-9370-49b1-b5ae-69df0ce9f7ae" data-name="Group 2077"><path id="b2391e11-db17-4637-97ed-868847e94e09" data-name="Path 1094" d="M4.0036,5.3344a1.3346,1.3346,0,1,1-.0723-2.6682q.0362-.0009.0723,0H21.3117V0H4.0075A3.9988,3.9988,0,0,0,0,3.99V19.96a4.0047,4.0047,0,0,0,4,4L19.9935,24A3.99,3.99,0,0,0,24,20.0266V5.3364Zm17.33,14.6765a1.3225,1.3225,0,0,1-1.324,1.3209h-.0079l-15.9948-.04A1.3381,1.3381,0,0,1,2.6678,19.96V7.7717A3.9958,3.9958,0,0,0,4.0036,8h17.33Z" style="fill:#fff"/></g></g><g id="f8003ab4-fb38-4f34-91cb-24fb83707a38" data-name="Group 2080"><g id="a20908a6-e562-4a13-a7ad-530b750f1b5a" data-name="Group 2079"><path id="a0b1683b-edb0-4256-b648-34b783f67bef" data-name="Path 1095" d="M18.8251,13.4544h4.0007V10.8772H18.8251a3.8687,3.8687,0,1,0-.1233,7.7365q.0617.001.1233,0h4.0007V16.0365h-4a1.2915,1.2915,0,1,1-.0019-2.583h.0019Z" style="fill:#fff"/></g></g></g></svg>