<?xml version="1.0" encoding="UTF-8" standalone="no"?>
<svg
   width="12.831269"
   height="12.836532"
   viewBox="0 0 12.831269 12.836532"
   fill="none"
   version="1.1"
   id="svg144"
   sodipodi:docname="icon-external-url.svg"
   inkscape:version="1.1.1 (3bf5ae0d25, 2021-09-20)"
   xmlns:inkscape="http://www.inkscape.org/namespaces/inkscape"
   xmlns:sodipodi="http://sodipodi.sourceforge.net/DTD/sodipodi-0.dtd"
   xmlns="http://www.w3.org/2000/svg"
   xmlns:svg="http://www.w3.org/2000/svg">
  <sodipodi:namedview
     id="namedview146"
     pagecolor="#ffffff"
     bordercolor="#666666"
     borderopacity="1.0"
     inkscape:pageshadow="2"
     inkscape:pageopacity="0.0"
     inkscape:pagecheckerboard="0"
     showgrid="false"
     inkscape:zoom="35.173913"
     inkscape:cx="6.6953028"
     inkscape:cy="6.3541409"
     inkscape:window-width="1920"
     inkscape:window-height="1017"
     inkscape:window-x="1912"
     inkscape:window-y="-8"
     inkscape:window-maximized="1"
     inkscape:current-layer="svg144" />
  <g
     opacity="0.4"
     clip-path="url(#clip0_116_1535)"
     id="g137"
     transform="translate(-5.325874,-5.1510627)">
    <path
       d="M 12.6843,10.627 C 11.5096,9.45222 9.236,9.36312 7.90381,10.6953 l -0.80799,0.808 c -1.33879,1.3388 -1.36943,3.4794 -0.06835,4.7805 1.121,1.121 2.86519,1.253 4.18273,0.4116 0.216,-0.138 0.4162,-0.2991 0.5973,-0.4804"
       stroke="#000000"
       stroke-width="1.5"
       stroke-linecap="round"
       stroke-linejoin="round"
       id="path133" />
    <path
       d="m 10.799,12.5123 c 1.1742,1.1743 3.4478,1.2634 4.78,-0.0688 l 0.808,-0.808 c 1.3388,-1.3388 1.3699,-3.47895 0.0688,-4.78003 -1.1215,-1.12147 -2.8661,-1.25393 -4.1832,-0.412 -0.2159,0.138 -0.4162,0.29907 -0.5973,0.48036"
       stroke="#000000"
       stroke-width="1.5"
       stroke-linecap="round"
       stroke-linejoin="round"
       id="path135" />
  </g>
  <defs
     id="defs142">
    <clipPath
       id="clip0_116_1535">
      <rect
         width="16"
         height="16"
         fill="#ffffff"
         transform="rotate(-45,14.180943,5.26765)"
         id="rect139"
         x="0"
         y="0" />
    </clipPath>
  </defs>
</svg>
