<?xml version="1.0" encoding="utf-8"?>
<!-- Generator: Adobe Illustrator 25.3.1, SVG Export Plug-In . SVG Version: 6.00 Build 0)  -->
<svg version="1.1" id="aa9287d7-9ad7-44d1-aa0e-b68675614a07"
	 xmlns="http://www.w3.org/2000/svg" xmlns:xlink="http://www.w3.org/1999/xlink" x="0px" y="0px" width="24px" height="36.3px"
	 viewBox="0 0 24 36.3" style="enable-background:new 0 0 24 36.3;" xml:space="preserve">
<style type="text/css">
	.st0{fill:#EC212B;}
</style>
<g id="Group_2074" transform="translate(-0.152 15.408)">
	<g id="Group_2085" transform="translate(0.152 -15.408)">
		<path id="Path_1100" class="st0" d="M12,32c4.1,0,7.5-3.3,7.5-7.5s-3.3-7.5-7.5-7.5s-7.5,3.3-7.5,7.5c0,0,0,0,0,0
			C4.5,28.7,7.9,32,12,32z M12,19.2c2.9,0,5.3,2.4,5.3,5.3s-2.4,5.3-5.3,5.3c-2.9,0-5.3-2.4-5.3-5.3v0C6.7,21.6,9.1,19.2,12,19.2
			L12,19.2z"/>
		<path id="Path_1101" class="st0" d="M21.2,12.8V9.1C21.1,4,17-0.1,11.9,0c-5,0.1-9,4.1-9.1,9.1v3.8H0v23.4h24V12.8H21.2z M5,9.1
			c0-3.9,3.1-7,7-7s7,3.1,7,7v3.8h-2.1V9.1c0-2.7-2.1-4.9-4.8-5c-2.7,0-4.9,2.1-5,4.8c0,0,0,0.1,0,0.1v3.8H5V9.1z M14.8,12.8H9.2
			V9.1c0-1.5,1.2-2.8,2.8-2.8c1.5,0,2.8,1.2,2.8,2.8V12.8z M21.9,34.1H2.1V15h19.7V34.1z"/>
		<path id="Path_1102" class="st0" d="M14.5,23.6L13,22l-1,1l-1.9-1.8l-1.5,1.5l3.3,3.2L14.5,23.6z"/>
	</g>
</g>
</svg>
