<?xml version="1.0" encoding="utf-8"?>
<!-- Generator: Adobe Illustrator 25.3.1, SVG Export Plug-In . SVG Version: 6.00 Build 0)  -->
<svg version="1.1" id="aa9287d7-9ad7-44d1-aa0e-b68675614a07"
	 xmlns="http://www.w3.org/2000/svg" xmlns:xlink="http://www.w3.org/1999/xlink" x="0px" y="0px" width="36px" height="32px"
	 viewBox="0 0 36 32" style="enable-background:new 0 0 36 32;" xml:space="preserve">
<style type="text/css">
	.st0{fill:#FFFFFF;}
</style>
<g id="Group_2084" transform="translate(0 -25.007)">
	<path id="Path_1096" class="st0" d="M36,55.7l-2.3-7.8c-0.1-0.4-0.5-0.7-1-0.7H30l-2-7c-0.1-0.4-0.5-0.8-1-0.8h-2.6l-2-7
		c-0.1-0.4-0.5-0.8-1-0.8h-6.8c-0.5,0-0.9,0.3-1,0.8l-2,7H9c-0.5,0-0.9,0.3-1,0.8l-2,7H3.4c-0.5,0-0.9,0.3-1,0.7L0,55.7
		c-0.2,0.6,0.2,1.1,0.7,1.3c0.1,0,0.2,0,0.3,0h33.9c0.6,0,1.1-0.5,1.1-1C36,55.9,36,55.8,36,55.7L36,55.7z M27.9,47.2h-8.5l1.6-5.7
		h5.2L27.9,47.2z M23.6,52.2l-0.9-2.9h1.7L23.6,52.2z M18,44.4l-0.9-2.9h1.7L18,44.4z M15.4,33.7h5.2l1.6,5.7h-8.5L15.4,33.7z
		 M9.8,41.5H15l1.6,5.7H8.1L9.8,41.5z M12.4,52.2l-0.9-2.9h1.7L12.4,52.2z M2.5,54.9l1.7-5.7h5.2l1.6,5.7H2.5z M13.8,54.9l1.6-5.7
		h5.2l1.6,5.7H13.8z M25,54.9l1.6-5.7h5.2l1.7,5.7H25z"/>
	<path id="Path_1097" class="st0" d="M18,28.7c0.6,0,1.1-0.5,1.1-1V26c0-0.6-0.5-1-1.1-1c-0.6,0-1.1,0.5-1.1,1c0,0,0,0,0,0v1.7
		C16.9,28.3,17.4,28.7,18,28.7C18,28.7,18,28.7,18,28.7z"/>
	<path id="Path_1098" class="st0" d="M13.4,29.1c0.4,0.4,1.1,0.4,1.5,0c0.4-0.4,0.4-1.1,0-1.5c0,0,0,0,0,0l-1.2-1.2
		c-0.4-0.4-1.1-0.4-1.5,0c-0.4,0.4-0.4,1,0,1.4L13.4,29.1z"/>
	<path id="Path_1099" class="st0" d="M22.6,29.1l1.2-1.2c0.4-0.4,0.4-1.1,0-1.5c-0.4-0.4-1.1-0.4-1.5,0l-1.2,1.2
		c-0.4,0.4-0.4,1.1,0,1.5C21.5,29.5,22.2,29.5,22.6,29.1C22.6,29.1,22.6,29.1,22.6,29.1z"/>
</g>
</svg>
