<svg id="aa9287d7-9ad7-44d1-aa0e-b68675614a07" data-name="Layer 1" xmlns="http://www.w3.org/2000/svg" width="24" height="24" viewBox="0 0 24 24"><g id="f60b1701-b45d-4d01-b36a-106553b25158" data-name="Group 2074"><g id="a794c467-6572-48a5-b61d-85a52eddbb60" data-name="Group 2078"><g id="bb29eb06-edbb-4719-8d47-22a461c097dc" data-name="Group 2077"><path id="babecf27-aecb-4024-a5a2-ab9320d66676" data-name="Path 1094" d="M4.0036,5.3344a1.3346,1.3346,0,1,1-.0723-2.6682q.0362-.0009.0723,0H21.3117V0H4.0075A3.9988,3.9988,0,0,0,0,3.99V19.96a4.0047,4.0047,0,0,0,4,4L19.9935,24A3.99,3.99,0,0,0,24,20.0266V5.3364Zm17.33,14.6765a1.3225,1.3225,0,0,1-1.324,1.3209h-.0079l-15.9948-.04A1.3381,1.3381,0,0,1,2.6678,19.96V7.7717A3.9958,3.9958,0,0,0,4.0036,8h17.33Z" style="fill:#ec212b"/></g></g><g id="ab87d1f9-28fa-4959-a496-2f83f610f8ab" data-name="Group 2080"><g id="bcd01f9c-de65-44e1-88ee-3bbf536964b1" data-name="Group 2079"><path id="e674f591-05aa-4ae2-82f8-f80b2dd1cc98" data-name="Path 1095" d="M18.8251,13.4544h4.0007V10.8772H18.8251a3.8687,3.8687,0,1,0-.1233,7.7365q.0617.001.1233,0h4.0007V16.0365h-4a1.2915,1.2915,0,1,1-.0019-2.583h.0019Z" style="fill:#ec212b"/></g></g></g></svg>