<?xml version="1.0" encoding="utf-8"?>
<!-- Generator: Adobe Illustrator 25.3.1, SVG Export Plug-In . SVG Version: 6.00 Build 0)  -->
<svg version="1.1" id="Layer_1" xmlns="http://www.w3.org/2000/svg" xmlns:xlink="http://www.w3.org/1999/xlink" x="0px" y="0px"
	 width="12.2px" height="16px" viewBox="0 0 12.2 16" style="enable-background:new 0 0 12.2 16;" xml:space="preserve">
<style type="text/css">
	.st0{fill:#FFFFFF;}
</style>
<g>
	<path class="st0" d="M10.8,6.7H1.7V6.4c0-0.6,0.1-1.3,0.4-1.9C2.2,4,2.6,3.5,3,3c0.4-0.4,0.9-0.8,1.4-1c0.5-0.2,1.1-0.4,1.7-0.4
		c0,0,0,0,0,0c0.6,0,1.2,0.1,1.7,0.4c0.5,0.2,1,0.6,1.4,1c0.3,0.4,0.6,0.9,0.9,1.4c0.1,0.3,0.4,0.5,0.8,0.5c0,0,0,0,0,0H11
		c0,0,0,0,0,0c0.2,0,0.4-0.1,0.6-0.3c0.1-0.2,0.2-0.4,0.1-0.6c-0.3-0.8-0.7-1.4-1.3-2C9.8,1.3,9.2,0.8,8.4,0.5
		c-1.5-0.7-3.2-0.7-4.7,0C3,0.8,2.3,1.3,1.8,1.9c-0.6,0.6-1,1.3-1.3,2C0.2,4.7,0,5.5,0,6.4v8.1c0,0.8,0.6,1.4,1.4,1.4h0l9.4,0
		c0.4,0,0.7-0.1,1-0.4c0.3-0.3,0.4-0.7,0.4-1V8C12.2,7.3,11.6,6.7,10.8,6.7z M10.5,14.3H1.7l0-6h8.8L10.5,14.3z"/>
	<path class="st0" d="M5.3,11.2l0,1.5c0,0.2,0.1,0.4,0.3,0.5c0.1,0.1,0.3,0.2,0.5,0.2c0,0,0,0,0,0c0.2,0,0.4-0.1,0.5-0.3
		c0.1-0.2,0.2-0.4,0.2-0.6v-1.4c0.3-0.2,0.5-0.6,0.5-1c0-0.4-0.2-0.8-0.6-1.1C6.2,8.8,5.4,9,5,9.6c-0.2,0.3-0.2,0.6-0.2,0.9
		C4.9,10.8,5.1,11,5.3,11.2z"/>
</g>
</svg>
