<?xml version="1.0" encoding="utf-8"?>
<!-- Generator: Adobe Illustrator 25.3.1, SVG Export Plug-In . SVG Version: 6.00 Build 0)  -->
<svg version="1.1" id="Layer_1" xmlns="http://www.w3.org/2000/svg" xmlns:xlink="http://www.w3.org/1999/xlink" x="0px" y="0px"
	 width="52px" height="52px" viewBox="0 0 52 52" style="enable-background:new 0 0 52 52;" xml:space="preserve">
<style type="text/css">
	.st0{fill:#EC212B;}
</style>
<g>
	<path id="Path_1110" class="st0" d="M39.1,3.5C35.1,1.2,30.6,0,26,0c-4.6,0-9.1,1.2-13.1,3.5C9,5.7,5.7,9,3.5,13
		C1.2,16.9,0,21.4,0,26c0,4.6,1.2,9.1,3.5,13.1c2.3,3.9,5.5,7.2,9.5,9.5c4,2.3,8.5,3.5,13.1,3.5c4.6,0,9.1-1.2,13.1-3.5
		c3.9-2.3,7.2-5.5,9.5-9.5c2.3-4,3.5-8.5,3.5-13c0-4.6-1.2-9.1-3.5-13.1C46.3,9,43,5.7,39.1,3.5z M26,48.8c-2.4,0-4.9-0.4-7.2-1.1
		c-2.3-0.7-4.4-1.8-6.3-3.3C10.7,43,9,41.3,7.6,39.5c-1.4-1.9-2.5-4-3.3-6.3c-0.8-2.3-1.1-4.7-1.1-7.2c0-3,0.6-6,1.8-8.8
		c1.1-2.7,2.8-5.2,4.8-7.3c2.1-2.1,4.6-3.7,7.3-4.8c5.6-2.4,12-2.4,17.7,0c2.7,1.1,5.2,2.8,7.3,4.8c2.1,2.1,3.7,4.6,4.9,7.3
		c1.2,2.8,1.8,5.8,1.8,8.8c0,3-0.6,6-1.8,8.8c-1.1,2.7-2.8,5.2-4.8,7.3c-2.1,2.1-4.6,3.7-7.3,4.9C32,48.2,29,48.8,26,48.8z"/>
	<path id="Path" class="st0" d="M35.7,15.9c-0.7-0.7-1.8-0.7-2.5,0l-7.6,7.6L18,15.9c-0.7-0.7-1.8-0.8-2.5-0.1s-0.8,1.8-0.1,2.5
		c0,0,0.1,0.1,0.1,0.1l7.6,7.6l-7.6,7.6c-0.7,0.7-0.8,1.8-0.1,2.5c0.7,0.7,1.8,0.8,2.5,0.1c0,0,0.1-0.1,0.1-0.1l7.6-7.6l7.6,7.6
		c0.7,0.7,1.8,0.8,2.5,0.1c0.7-0.7,0.8-1.8,0.1-2.5c0,0-0.1-0.1-0.1-0.1L28.1,26l7.6-7.6C36.4,17.7,36.4,16.6,35.7,15.9
		C35.7,15.9,35.7,15.9,35.7,15.9z"/>
</g>
</svg>
