<?xml version="1.0" encoding="utf-8"?>
<!-- Generator: Adobe Illustrator 25.3.1, SVG Export Plug-In . SVG Version: 6.00 Build 0)  -->
<svg version="1.1" id="Layer_1" xmlns="http://www.w3.org/2000/svg" xmlns:xlink="http://www.w3.org/1999/xlink" x="0px" y="0px"
	 width="52px" height="52px" viewBox="0 0 52 52" style="enable-background:new 0 0 52 52;" xml:space="preserve">
<style type="text/css">
	.st0{fill:#A8A7A5;}
</style>
<g>
	<path class="st0" d="M27.3,34.4L17.1,44.6c-1.3,1.3-3,2-4.8,2s-3.5-0.7-4.8-2c-1.3-1.3-2-3-2-4.8c0-1.8,0.7-3.5,2-4.8l10.2-10.2
		c0.9-1,0.9-2.6,0-3.6c-0.5-0.5-1.1-0.8-1.9-0.9c-0.7,0-1.4,0.2-2,0.7L3.7,31.1l-0.3,0.1v0.1C1.2,33.6,0,36.6,0,39.8
		c0,3.3,1.3,6.3,3.6,8.6l0.2,0.2h0c2.4,2.3,5.4,3.4,8.4,3.4c3.1,0,6.3-1.2,8.6-3.6L31,38.2c0.1-0.1,0.1-0.1,0.2-0.2
		c1-1.1,0.9-2.8-0.2-3.8C29.9,33.2,28.2,33.3,27.3,34.4z"/>
	<path class="st0" d="M48.6,3.7c-4.7-4.9-12.4-5-17.3-0.3L21.1,13.7c-0.9,1-0.9,2.6,0,3.6c1,1.1,2.7,1.2,3.8,0.2L35.1,7.2
		c2.6-2.6,6.9-2.7,9.6-0.1l0.1,0.1c1.3,1.3,2,3,2,4.8c0,1.8-0.7,3.5-2,4.8L34.6,27.1c-0.5,0.5-0.8,1.2-0.8,1.9
		c0,0.6,0.2,1.2,0.6,1.7v0.2l0.3,0.1c0.5,0.5,1.1,0.7,1.8,0.7c0,0,0,0,0,0c0.7,0,1.4-0.3,1.9-0.8l10.2-10.2
		C53.1,15.9,53.1,8.5,48.6,3.7z"/>
	<path class="st0" d="M21.7,31.3c0.4,0.3,0.9,0.4,1.4,0.4c0.7,0,1.4-0.3,1.9-0.8l5.8-5.8c0.9-1,0.9-2.6,0-3.6
		c-1-1.1-2.7-1.2-3.8-0.2l-5.8,5.8c-1,1.1-1,2.8,0,3.8L21.7,31.3L21.7,31.3z"/>
</g>
</svg>
