<svg id="bbb15b01-82ba-4bbc-850b-81ceb78dd993" data-name="Layer 1" xmlns="http://www.w3.org/2000/svg" width="181.2356" height="30.0157" viewBox="0 0 181.2356 30.0157"><g id="e06b7491-f2f4-4d12-8c4a-aa8bf05d9c22" data-name="Group 2161"><g id="b4014fa2-b39d-46de-b188-bb33e8bee806" data-name="dTrust"><g id="f2775f16-824b-4c08-ac27-2a4d6a906aff" data-name="Group 2156"><path id="a4f8c7d9-bdd3-475e-9167-2c32f3ea0688" data-name="Path 1120" d="M42.1062.2252h25.083V6.5263h-8.763V29.4775h-7.637V6.5263H42.11Z" style="fill:#FFFFFF"/><path id="a12d22e0-a464-4bc1-a338-01f323227ba8" data-name="Path 1121" d="M87.8418,29.4775l-4.255-8.0914H77.9119v8.0914H70.2748V.2252H83.4233q5.8019,0,8.9936,2.6914A9.3646,9.3646,0,0,1,95.6087,10.49a11.5255,11.5255,0,0,1-1.3349,5.6962,9.2352,9.2352,0,0,1-3.8807,3.7352l6.0917,9.5559Zm-9.93-14.1882H83.46a5.1457,5.1457,0,0,0,3.61-1.1682,4.358,4.358,0,0,0,1.2732-3.38A4.185,4.185,0,0,0,87.07,7.4649a5.209,5.209,0,0,0-3.61-1.148H77.9119Z" style="fill:#FFFFFF"/><path id="ad9902bd-dccd-4715-b5dd-cd6399859278" data-name="Path 1122" d="M109.2461,21.8373a5.5268,5.5268,0,0,0,4.1316,1.6688,5.1736,5.1736,0,0,0,3.9849-1.6486,6.2911,6.2911,0,0,0,1.5172-4.4442V.2192h7.636V17.4133a13.3689,13.3689,0,0,1-1.6051,6.6562,10.8729,10.8729,0,0,1-4.59,4.4027,15.0235,15.0235,0,0,1-6.991,1.5435,15.2752,15.2752,0,0,1-7.0306-1.5435,11.0718,11.0718,0,0,1-4.6738-4.4027,13.08,13.08,0,0,1-1.6475-6.6562V.2192h7.636V17.4133A6.0687,6.0687,0,0,0,109.2461,21.8373Z" style="fill:#FFFFFF"/><path id="b5734cc9-28dd-4197-9bec-1902214c6f0d" data-name="Path 1123" d="M146.91,6.7761A14.6807,14.6807,0,0,0,142.4654,5.9a4.1154,4.1154,0,0,0-2.2333.5219,1.6967,1.6967,0,0,0-.8089,1.5232,2.0836,2.0836,0,0,0,.7082,1.6062,5.4083,5.4083,0,0,0,1.7507,1.0427q1.0454.3975,3.0891,1.0226A40.1161,40.1161,0,0,1,150,13.37a8.7924,8.7924,0,0,1,3.4,2.6914,7.4662,7.4662,0,0,1,1.4159,4.7364,8.093,8.093,0,0,1-1.5433,4.9864,9.3583,9.3583,0,0,1-4.2348,3.1091,16.4542,16.4542,0,0,1-5.9885,1.0437,21.6619,21.6619,0,0,1-7.2409-1.2724A19.799,19.799,0,0,1,129.57,25.18l2.9636-5.9674a18.4343,18.4343,0,0,0,5.2383,3.2133,14.2934,14.2934,0,0,0,5.36,1.2522,4.97,4.97,0,0,0,2.6915-.6261,2.04,2.04,0,0,0,.9813-1.8357,2.1729,2.1729,0,0,0-.73-1.6688,5.3857,5.3857,0,0,0-1.8357-1.064q-1.1052-.3957-3.1083-.9386a38.285,38.285,0,0,1-4.9663-1.69,8.7673,8.7673,0,0,1-3.3577-2.5872,7.1087,7.1087,0,0,1-1.3986-4.611,8.0541,8.0541,0,0,1,1.4391-4.7537,9.1629,9.1629,0,0,1,4.09-3.15,15.8884,15.8884,0,0,1,6.1545-1.1055,22.3376,22.3376,0,0,1,6.2586.8971,20.6479,20.6479,0,0,1,5.4265,2.399l-2.8816,6.0928A25.6622,25.6622,0,0,0,146.91,6.7761Z" style="fill:#FFFFFF"/><path id="a547da04-3e78-4005-92b9-252e07b521d4" data-name="Path 1124" d="M156.1526.2252h25.083V6.5263h-8.763V29.4775h-7.637V6.5263h-8.68Z" style="fill:#FFFFFF"/></g></g><g id="e4dedfdd-0b03-4ded-a8e9-8a296c8e10b2" data-name="dTrust-2"><g id="b1bff951-2240-40ad-9678-125a20d4e0b4" data-name="Group 2157"><path id="b7d93a8d-c0bf-43ba-b62d-4afca0da9d3a" data-name="Path 1125" d="M41.2173,9.9054q2.9631,3.2549,2.9636,8.93c0,.5846-.0153,1.03-.0415,1.3362h-15.69a5.4005,5.4005,0,0,0,1.8772,2.9411,5.1848,5.1848,0,0,0,3.2545,1.0225,7.0468,7.0468,0,0,0,2.8169-.5846A7.97,7.97,0,0,0,38.88,21.84l3.8807,3.8808a11.4327,11.4327,0,0,1-4.2348,2.9837,14.6245,14.6245,0,0,1-5.6132,1.0215A13.4965,13.4965,0,0,1,26.57,28.31a9.8691,9.8691,0,0,1-4.1519-4.0063,12.1556,12.1556,0,0,1-1.4391-6.0089,12.45,12.45,0,0,1,1.46-6.1129A10.0834,10.0834,0,0,1,26.57,8.0928a12.8137,12.8137,0,0,1,6.1747-1.44Q38.2554,6.6508,41.2173,9.9054Zm-4.2561,6.3011a4.35,4.35,0,0,0-1.1477-3.15,4.3643,4.3643,0,0,0-5.9678-.02,5.8055,5.8055,0,0,0-1.5635,3.1718Z" style="fill:#ec212b"/></g></g><path id="b0696fce-a3da-40b6-aa59-9cd63adcc399" data-name="Subtraction 9" d="M9.9766,29.2184H0V.13H10.2669a21.081,21.081,0,0,1,2.216.1143,18.1743,18.1743,0,0,1,2.0815.3429,16.1757,16.1757,0,0,1,1.9521.57,15.1692,15.1692,0,0,1,1.82.798A14.6543,14.6543,0,0,1,19.9927,2.961,13.51,13.51,0,0,1,21.4542,4.15a13.1038,13.1038,0,0,1,1.2673,1.3735,13.5544,13.5544,0,0,1,1.9217,3.2679,13.909,13.909,0,0,1,.6069,1.8327,15.1426,15.1426,0,0,1,.3661,1.9541,17.4065,17.4065,0,0,1,.1224,2.0754,17.2558,17.2558,0,0,1-.1234,2.0775,15.16,15.16,0,0,1-.37,1.9581,13.9828,13.9828,0,0,1-.6159,1.8387,13.6051,13.6051,0,0,1-.8628,1.7194A13.4627,13.4627,0,0,1,22.68,23.8144a13.0525,13.0525,0,0,1-1.29,1.38A13.4844,13.4844,0,0,1,19.9,26.3865a14.8567,14.8567,0,0,1-1.6942,1.0114,15.781,15.781,0,0,1-1.861.799,16.8793,16.8793,0,0,1-1.9935.57,18.912,18.912,0,0,1-2.124.3419A21.8778,21.8778,0,0,1,9.9766,29.2184ZM8.5859,7.7571A3.9708,3.9708,0,0,0,4.62,11.7229a3.9028,3.9028,0,0,0,1.6182,3.19l-.625,5.6245a.992.992,0,0,0,.9851,1.1h3.9708a.9912.9912,0,0,0,.9912-.9912.9721.9721,0,0,0-.0061-.1092l-.625-5.6245a3.9032,3.9032,0,0,0,1.6183-3.19A3.9709,3.9709,0,0,0,8.5859,7.7571ZM16.83,11.0756a2.0592,2.0592,0,0,0-2.0572,2.0562,2.0227,2.0227,0,0,0,.8415,1.6537l-.3237,2.9169a.5143.5143,0,0,0,.5108.5715h2.0572a.5138.5138,0,0,0,.514-.5136.5081.5081,0,0,0-.0032-.0579l-.3247-2.9169a2.0227,2.0227,0,0,0,.8415-1.6537,2.0591,2.0591,0,0,0-2.0552-2.0562Z" style="fill:#ec212b"/></g></svg>