<svg width="137" height="25" viewBox="0 0 137 25" fill="none" xmlns="http://www.w3.org/2000/svg">
<path fill-rule="evenodd" clip-rule="evenodd" d="M36 14.58C36 13.14 35.3327 12.42 34.4986 12.42C33.6645 12.42 33 13.14 33 14.58H36ZM44 15.5028V17.1974H33.1404C33.1404 17.1974 33.4828 19.0646 36.1963 19.0646C37.894 19.0646 39.2521 17.7067 39.2521 17.7067L42.1354 22.2869C42.1354 22.2869 39.5917 25 35.0107 25C29.2414 25 25 20.7592 25 15.5028C25 10.2436 29.2414 6 34.4986 6C39.7586 6 44 10.2436 44 15.5028Z" fill="#F0864B"/>
<path fill-rule="evenodd" clip-rule="evenodd" d="M67 0V7.88661H60.4711V24H51.5347V7.88661H45V0H67Z" fill="#231916"/>
<path fill-rule="evenodd" clip-rule="evenodd" d="M80.6123 6C81.9767 6 83 6.52318 83 6.52318L81.6356 14.1935C81.6356 14.1935 80.274 13.4959 79.2507 13.4959C77.5452 13.4959 76.1808 14.8911 76.1808 17.3297V25H68V6.52318H75.8397L76.5247 8.61588C76.5247 8.61588 77.8863 6 80.6123 6Z" fill="#231916"/>
<path fill-rule="evenodd" clip-rule="evenodd" d="M84 15.7616V6H92.1437V15.7616C92.1437 17.157 92.8197 17.8547 93.4986 17.8547C94.1803 17.8547 94.8563 17.157 94.8563 15.7616V6H103V24.4797H95.1958L94.5169 22.3866C94.5169 22.3866 93.1591 25 90.107 25C86.7155 25 84 22.2122 84 15.7616Z" fill="#231916"/>
<path fill-rule="evenodd" clip-rule="evenodd" d="M113.763 25C107.979 25 105 21.7777 105 21.7777L107.628 17.7038C107.628 17.7038 109.382 19.4013 112.009 19.4013C112.538 19.4013 112.886 19.0618 112.886 18.7223C112.886 17.7038 106.049 17.3672 106.049 11.9382C106.049 8.71307 108.855 6 114.292 6C119.024 6 122 8.88282 122 8.88282L119.372 12.9567C119.372 12.9567 117.969 11.5987 116.043 11.5987C115.517 11.5987 115.166 11.9382 115.166 12.2749C115.166 13.2933 122 13.6328 122 19.0618C122 22.2869 119.197 25 113.763 25Z" fill="#231916"/>
<path fill-rule="evenodd" clip-rule="evenodd" d="M123 12.846V5.9033H125.452V0H133.851V5.9033H137V12.846H133.851V15.7991C133.851 17.1888 134.551 17.8807 135.599 17.8807C136.302 17.8807 137 17.707 137 17.707V24.6526C137 24.6526 135.599 25 133.851 25C128.601 25 125.452 21.8761 125.452 15.7991V12.846H123Z" fill="#231916"/>
<path fill-rule="evenodd" clip-rule="evenodd" d="M10.2849 25C4.79943 25 0 24.6526 0 24.6526V0.347383C0 0.347383 4.79943 0 10.2849 0C19.4035 0 24 5.03416 24 12.5C24 19.9629 19.4035 25 10.2849 25ZM8.33066 11.8481C9.70402 11.4861 10.7178 10.2218 10.7178 8.71769C10.7178 6.93139 9.28795 5.4833 7.52408 5.4833C5.7602 5.4833 4.3303 6.93139 4.3303 8.71769C4.3303 10.2218 5.34413 11.4861 6.71749 11.8481L5.60781 19.7146H9.44034L8.33066 11.8481Z" fill="#F0864B"/>
</svg>
