<svg width="50" height="50" viewBox="0 0 50 50" fill="none" xmlns="http://www.w3.org/2000/svg">
<g filter="url(#filter0_d)">
<path fill-rule="evenodd" clip-rule="evenodd" d="M25 38C33.2843 38 40 31.2843 40 23C40 14.7157 33.2843 8 25 8C16.7157 8 10 14.7157 10 23C10 31.2843 16.7157 38 25 38Z" fill="white"/>
</g>
<path d="M30.2712 17.6769L18.2303 22.3212C17.4085 22.6509 17.4133 23.1093 18.0805 23.3136L21.0835 24.251L22.2326 27.7738C22.3723 28.1594 22.3034 28.3123 22.7083 28.3123C23.0208 28.3123 23.1594 28.1699 23.3334 27.9998C23.4441 27.8915 24.1012 27.2527 24.8348 26.5394L27.9586 28.8473C28.5334 29.1644 28.9484 29.0002 29.0915 28.3135L31.142 18.6508C31.352 17.8091 30.8212 17.4273 30.2712 17.6769ZM21.5548 24.0356L28.3237 19.7651C28.6616 19.5602 28.9714 19.6703 28.7171 19.8961L22.9211 25.1255L22.6955 27.5325L21.5548 24.0356Z" fill="black"/>
<defs>
<filter id="filter0_d" x="0" y="0" width="50" height="50" filterUnits="userSpaceOnUse" color-interpolation-filters="sRGB">
<feFlood flood-opacity="0" result="BackgroundImageFix"/>
<feColorMatrix in="SourceAlpha" type="matrix" values="0 0 0 0 0 0 0 0 0 0 0 0 0 0 0 0 0 0 127 0" result="hardAlpha"/>
<feOffset dy="2"/>
<feGaussianBlur stdDeviation="5"/>
<feColorMatrix type="matrix" values="0 0 0 0 0 0 0 0 0 0 0 0 0 0 0 0 0 0 0.1 0"/>
<feBlend mode="normal" in2="BackgroundImageFix" result="effect1_dropShadow"/>
<feBlend mode="normal" in="SourceGraphic" in2="effect1_dropShadow" result="shape"/>
</filter>
</defs>
</svg>
