<svg width="100" height="100" viewBox="0 0 100 100" fill="none" xmlns="http://www.w3.org/2000/svg">
<path d="M0 33.5417C0 21.6773 0 15.7451 2.34555 11.2297C4.32213 7.42463 7.42463 4.32213 11.2297 2.34555C15.7451 0 21.6773 0 33.5417 0H66.4583C78.3227 0 84.2549 0 88.7703 2.34555C92.5754 4.32213 95.6779 7.42463 97.6544 11.2297C100 15.7451 100 21.6773 100 33.5417V66.4583C100 78.3227 100 84.2549 97.6544 88.7703C95.6779 92.5754 92.5754 95.6779 88.7703 97.6544C84.2549 100 78.3227 100 66.4583 100H33.5417C21.6773 100 15.7451 100 11.2297 97.6544C7.42463 95.6779 4.32213 92.5754 2.34555 88.7703C0 84.2549 0 78.3227 0 66.4583V33.5417Z" fill="url(#paint0_linear)"/>
<path d="M38.5416 76.5632C36.5168 76.5632 36.8609 75.7986 36.1625 73.8707L30.2083 54.2746L76.0416 27.084" fill="#C8DAEA"/>
<path d="M38.5417 76.5628C40.1042 76.5628 40.7946 75.8482 41.6667 75.0003L50.0001 66.8971L39.6053 60.6289" fill="#A9C9DD"/>
<path d="M39.6042 60.6294L64.7917 79.2383C67.6659 80.8242 69.7403 80.0031 70.4562 76.5698L80.7089 28.2557C81.7585 24.0473 79.1046 22.1385 76.355 23.3869L16.1519 46.6009C12.0424 48.2492 12.0664 50.5419 15.4028 51.5634L30.8523 56.3855L66.6195 33.8204C68.308 32.7965 69.8577 33.3469 68.5857 34.4758" fill="url(#paint1_linear)"/>
<defs>
<linearGradient id="paint0_linear" x1="66.67" y1="16.67" x2="41.67" y2="75" gradientUnits="userSpaceOnUse">
<stop stop-color="#37AEE2"/>
<stop offset="1" stop-color="#1E96C8"/>
</linearGradient>
<linearGradient id="paint1_linear" x1="57.815" y1="47.9152" x2="67.5957" y2="70.172" gradientUnits="userSpaceOnUse">
<stop stop-color="#EFF7FC"/>
<stop offset="1" stop-color="white"/>
</linearGradient>
</defs>
</svg>
