<svg width="100" height="100" viewBox="0 0 100 100" fill="none" xmlns="http://www.w3.org/2000/svg">
<path d="M0 33.5417C0 21.6773 0 15.7451 2.34555 11.2297C4.32213 7.42463 7.42463 4.32213 11.2297 2.34555C15.7451 0 21.6773 0 33.5417 0H66.4583C78.3227 0 84.2549 0 88.7703 2.34555C92.5754 4.32213 95.6779 7.42463 97.6544 11.2297C100 15.7451 100 21.6773 100 33.5417V66.4583C100 78.3227 100 84.2549 97.6544 88.7703C95.6779 92.5754 92.5754 95.6779 88.7703 97.6544C84.2549 100 78.3227 100 66.4583 100H33.5417C21.6773 100 15.7451 100 11.2297 97.6544C7.42463 95.6779 4.32213 92.5754 2.34555 88.7703C0 84.2549 0 78.3227 0 66.4583V33.5417Z" fill="#1EA1F2"/>
<path fill-rule="evenodd" clip-rule="evenodd" d="M77.7562 37.8181C77.7804 38.4427 77.7885 39.067 77.7885 39.6916C77.7885 58.628 64.4676 80.489 40.1084 80.489C32.6256 80.489 25.6678 78.1042 19.8054 74.0443C20.8417 74.1579 21.8941 74.2433 22.9627 74.2433C29.1669 74.2433 34.8812 71.9432 39.4139 68.0821C33.6189 67.9969 28.7255 63.8235 27.0379 58.1454C27.848 58.3157 28.6824 58.4012 29.5356 58.4012C30.7388 58.4012 31.9069 58.231 33.0267 57.8903C26.9624 56.5844 22.3948 50.7928 22.3948 43.8372C22.3948 43.752 22.3948 43.7235 22.3948 43.6667C24.182 44.7171 26.2276 45.3698 28.3998 45.4549C24.8414 42.8714 22.5024 38.471 22.5024 33.5027C22.5024 30.8908 23.1538 28.4207 24.3004 26.2914C30.8303 34.9789 40.5929 40.6854 51.599 41.2816C51.3729 40.2312 51.2571 39.1242 51.2571 38.017C51.2571 30.0961 57.1867 23.6797 64.5026 23.6797C68.3112 23.6797 71.7511 25.4118 74.1655 28.194C77.1882 27.5694 80.0198 26.3771 82.5823 24.7305C81.5891 28.0805 79.4922 30.8906 76.7522 32.6508C79.433 32.3101 81.9901 31.5442 84.3615 30.4086C82.5823 33.276 80.3428 35.8024 77.7562 37.8181Z" fill="white"/>
</svg>
