<svg width="22" height="24" viewBox="0 0 22 24" fill="none" xmlns="http://www.w3.org/2000/svg">
<path d="M11 0C14.467 0 17.2857 2.69062 17.2857 6C17.2857 9.30937 14.467 12 11 12C7.53303 12 4.71429 9.30937 4.71429 6C4.71429 2.69062 7.53303 0 11 0ZM22 22.2C22 23.1937 21.0179 24 19.8 24H2.2C0.982143 24 0 23.1937 0 22.2V20.4C0 17.4188 2.95625 15 6.6 15H7.09107C8.29911 15.4781 9.61518 15.75 11 15.75C12.3848 15.75 13.7107 15.4781 14.9089 15H15.4C19.0437 15 22 17.4188 22 20.4V22.2Z" fill="white"/>
</svg>
